<svg class="typst-doc" viewBox="0 0 240 59.331" width="240pt" height="59.331pt" xmlns="http://www.w3.org/2000/svg" xmlns:xlink="http://www.w3.org/1999/xlink" xmlns:h5="http://www.w3.org/1999/xhtml">
    <path class="typst-shape" fill="#ffffff" fill-rule="nonzero" d="M 0 0v 59.331 h 240 v -59.331 Z "/>
    <g>
        <g class="typst-text" transform="matrix(1 0 0 -1 65.44625000000002 18.517)">
            <use xlink:href="#gA1447EA321D480FB1041114404ECE694" x="0" y="0" fill="#000000" fill-rule="nonzero"/>
            <use xlink:href="#g914081D68555C692F26391DE090B0B3E" x="8.2555" y="0" fill="#000000" fill-rule="nonzero"/>
            <use xlink:href="#gC86E2D9E393312FD1F271EEB788D2978" x="12.3975" y="0" fill="#000000" fill-rule="nonzero"/>
            <use xlink:href="#gF4932204799E3662F4621826A8A21DE0" x="17.86" y="0" fill="#000000" fill-rule="nonzero"/>
            <use xlink:href="#gC86E2D9E393312FD1F271EEB788D2978" x="23.322499999999998" y="0" fill="#000000" fill-rule="nonzero"/>
            <use xlink:href="#g8EFD6AAE6D06C2AD11D2FDC436426696" x="32.4235" y="0" fill="#000000" fill-rule="nonzero"/>
            <use xlink:href="#gF231A81953E95796D08D744DB5D1918A" x="46.986999999999995" y="0" fill="#000000" fill-rule="nonzero"/>
            <use xlink:href="#gFA1FC7EC59589198651C268AA87CFA9" x="55.19499999999999" y="0" fill="#000000" fill-rule="nonzero"/>
            <use xlink:href="#g8E4AB705C39E83BC179EF361244E3A33" x="61.265499999999996" y="0" fill="#000000" fill-rule="nonzero"/>
            <use xlink:href="#g7EEFA4EF4A8E1B51F7FF3FDADB522CB5" x="65.512" y="0" fill="#000000" fill-rule="nonzero"/>
            <use xlink:href="#g5B62D46FA7FDE2C1F29D1045022E1B90" x="68.5425" y="0" fill="#000000" fill-rule="nonzero"/>
            <use xlink:href="#g7EEFA4EF4A8E1B51F7FF3FDADB522CB5" x="77.6435" y="0" fill="#000000" fill-rule="nonzero"/>
            <use xlink:href="#gF966DFA5D981C3E47E2321E744E21F5F" x="80.674" y="0" fill="#000000" fill-rule="nonzero"/>
            <use xlink:href="#gDEEB100C61B237A40D2BAF1BA8E56992" x="84.98700000000001" y="0" fill="#000000" fill-rule="nonzero"/>
            <use xlink:href="#g8E4AB705C39E83BC179EF361244E3A33" x="90.29750000000001" y="0" fill="#000000" fill-rule="nonzero"/>
            <use xlink:href="#g7EEFA4EF4A8E1B51F7FF3FDADB522CB5" x="94.54400000000001" y="0" fill="#000000" fill-rule="nonzero"/>
            <use xlink:href="#gFCE0062CDCF4A638D4161CE4CECE343D" x="97.57450000000001" y="0" fill="#000000" fill-rule="nonzero"/>
            <use xlink:href="#gFBCC6C9BAD7B5633F4FD59D2E6C896D4" x="103.03700000000002" y="0" fill="#000000" fill-rule="nonzero"/>
        </g>
        <g class="typst-text" transform="matrix(1 0 0 -1 70.5 30.156)">
            <use xlink:href="#gC2FA9689F1A8A88644E6770FA558780E" x="0" y="0" fill="#787878" fill-rule="nonzero"/>
            <use xlink:href="#gA2E6FDCC04B48F69534D177C70D2725E" x="4.448" y="0" fill="#787878" fill-rule="nonzero"/>
            <use xlink:href="#g18944438FFE1E4B4DDABF154A6A49177" x="6.672000000000001" y="0" fill="#787878" fill-rule="nonzero"/>
            <use xlink:href="#g8577653153C95CD1440DDAAAA00AD810" x="13.336" y="0" fill="#787878" fill-rule="nonzero"/>
            <use xlink:href="#g11AFE4FF67A66904825062A4ABF70586" x="17.336" y="0" fill="#787878" fill-rule="nonzero"/>
            <use xlink:href="#g6275D0CA679A7CC69AC9C7F8AD7018D" x="24.448" y="0" fill="#787878" fill-rule="nonzero"/>
            <use xlink:href="#g8577653153C95CD1440DDAAAA00AD810" x="30.448" y="0" fill="#787878" fill-rule="nonzero"/>
            <use xlink:href="#gA7CF7CE29AACBA04C242774DEB5A64E8" x="34.448" y="0" fill="#787878" fill-rule="nonzero"/>
            <use xlink:href="#g18944438FFE1E4B4DDABF154A6A49177" x="36.672" y="0" fill="#787878" fill-rule="nonzero"/>
            <use xlink:href="#g55482B66D6D485EEE0201577892864A7" x="46" y="0" fill="#787878" fill-rule="nonzero"/>
            <use xlink:href="#gC2FA9689F1A8A88644E6770FA558780E" x="54.888000000000005" y="0" fill="#787878" fill-rule="nonzero"/>
            <use xlink:href="#gE69756FDFBC07A8F991B44DBD61D9CFB" x="59.336000000000006" y="0" fill="#787878" fill-rule="nonzero"/>
            <use xlink:href="#g12D20A93472E248340E9B0FB6C3BEAE2" x="65.44800000000001" y="0" fill="#787878" fill-rule="nonzero"/>
            <use xlink:href="#g55482B66D6D485EEE0201577892864A7" x="74.11200000000001" y="0" fill="#787878" fill-rule="nonzero"/>
            <use xlink:href="#gD732957BDA558C5C30EE7F4112DA50B0" x="83.00000000000001" y="0" fill="#787878" fill-rule="nonzero"/>
            <use xlink:href="#g36D8BF04758EEE8B2BD3658E1687701F" x="87.00000000000001" y="0" fill="#787878" fill-rule="nonzero"/>
            <use xlink:href="#gD732957BDA558C5C30EE7F4112DA50B0" x="91.00000000000001" y="0" fill="#787878" fill-rule="nonzero"/>
            <use xlink:href="#gF1CA63E495D27F82724D32B734D301F9" x="95.00000000000001" y="0" fill="#787878" fill-rule="nonzero"/>
        </g>
        <path class="typst-shape" fill="none" stroke="#a0a0a0" stroke-width="0.4" stroke-linecap="butt" stroke-linejoin="miter" stroke-miterlimit="4" transform="matrix(1 0 0 1 14 39.331)" d="M 0 0h 212 "/>
    </g>
    <defs id="glyph">
        <symbol id="gA1447EA321D480FB1041114404ECE694" overflow="visible">
            <path d="M 0 0m 7.8564997 0 v 0.44649997 h -0.9214997 l -2.4320002 5.9375 c -0.10449982 0.24699974 -0.21850014 0.24699974 -0.3800001 0.24699974 c -0.2659998 0 -0.3039999 -0.07599974 -0.37049985 -0.24699974 l -2.356 -5.719 c -0.05700004 -0.14249998 -0.0855 -0.21849999 -0.8075 -0.21849999 h -0.1995 v -0.44649997 l 1.1114999 0.028499998 c 0.37049997 0 0.9024999 0 1.254 -0.028499998 v 0.44649997 c 0 0 -0.8455 0 -0.8455 0.12350002 l 0.038000107 0.11399996 l 0.4749999 1.1494999 h 2.5459998 l 0.5700002 -1.387 h -0.90250015 v -0.44649997 c 0.36100006 0.028499998 1.2635002 0.028499998 1.6719999 0.028499998 c 0.3800001 0 1.2160001 0 1.5485001 -0.028499998 Z m -3.0779996 2.28 h -2.1660001 l 1.083 2.641 Z "/>
        </symbol>
        <symbol id="g914081D68555C692F26391DE090B0B3E" overflow="visible">
            <path d="M 0 0m 3.8284998 0 v 0.44649997 h -1.083 v 5.624 h 1.083 v 0.44649982 c -0.3894999 -0.02850008 -1.3204999 -0.02850008 -1.7574999 -0.02850008 c -0.43699992 0 -1.3679999 0 -1.7574999 0.02850008 v -0.44649982 h 1.083 v -5.624 h -1.083 v -0.44649997 c 0.38949996 0.028499998 1.3204999 0.028499998 1.7574999 0.028499998 c 0.43700004 0 1.368 0 1.7574999 -0.028499998 Z "/>
        </symbol>
        <symbol id="gC86E2D9E393312FD1F271EEB788D2978" overflow="visible">
            <path d="M 0 0m 4.9115 1.9094999 c 0 1.0925 -0.7505002 1.9760001 -2.1565 1.9760001 c -0.27550006 0 -0.7789999 -0.02850008 -1.2254999 -0.33249998 v 1.2539997 c 0.2659999 -0.047499657 0.37049997 -0.06649971 0.6934998 -0.06649971 c 1.3870001 0 2.261 1.0734997 2.261 1.3109999 c 0 0.06650019 -0.019000053 0.171 -0.1329999 0.171 c -0.02850008 0 -0.038000107 0 -0.14249992 -0.038000107 c -0.5415001 -0.20900011 -1.0450001 -0.2659998 -1.4535 -0.2659998 c -0.7219999 0 -1.2254999 0.18050003 -1.4725 0.2659998 c -0.0855 0.02850008 -0.09499991 0.038000107 -0.12349999 0.038000107 c -0.1329999 0 -0.1329999 -0.10449982 -0.1329999 -0.25650024 v -2.7739997 c 0 -0.171 0 -0.2945001 0.20899999 -0.2945001 c 0.12349999 0 0.14249992 0.038000107 0.20899999 0.11400008 c 0.37049997 0.43700004 0.88349986 0.53200006 1.273 0.53200006 c 0.8455 0 0.8455 -0.83599997 0.8455 -1.596 c 0 -0.69350004 0 -1.6435 -1.1400001 -1.6435 c -0.22799993 0 -0.82649994 0.047499985 -1.2255 0.589 c 0.342 0.018999994 0.61750007 0.24700004 0.61750007 0.63650006 c 0 0.5035 -0.40850008 0.6459999 -0.6365 0.6459999 c -0.14250004 0 -0.6365 -0.0855 -0.6365 -0.66499996 c 0 -0.8075 0.74099994 -1.615 1.919 -1.615 c 1.52 0 2.451 0.85499996 2.451 2.014 Z "/>
        </symbol>
        <symbol id="gF4932204799E3662F4621826A8A21DE0" overflow="visible">
            <path d="M 0 0m 5.0255 3.0305 c 0 0.92149997 -0.009500027 3.192 -2.299 3.192 c -2.2894998 0 -2.2989998 -2.261 -2.2989998 -3.192 c 0 -0.9405 0.009499997 -3.135 2.2989998 -3.135 c 2.28 0 2.299 2.185 2.299 3.135 Z m -1.2159998 0.11400008 c 0 -0.53200006 0 -1.3965001 -0.06650019 -1.8905001 c -0.1329999 -0.8835 -0.7314999 -1.0165 -1.0165 -1.0165 c -0.34199977 0 -0.87399983 0.20899998 -0.9974998 0.9025 c -0.0855 0.49399996 -0.0855 1.482 -0.0855 2.0045 c 0 0.6839998 0 1.3014996 0.075999975 1.7955 c 0.11399996 0.8455 0.7789999 0.9404998 1.0069999 0.9404998 c 0.35150003 0 0.7410002 -0.18050003 0.92149997 -0.5984998 c 0.16150022 -0.35150003 0.16150022 -1.3585002 0.16150022 -2.1375 Z "/>
        </symbol>
        <symbol id="g8EFD6AAE6D06C2AD11D2FDC436426696" overflow="visible">
            <path d="M 0 0m 10.9155 2.2419999 v 0.7220001 h -10.9155 v -0.7220001 Z "/>
        </symbol>
        <symbol id="gF231A81953E95796D08D744DB5D1918A" overflow="visible">
            <path d="M 0 0m 6.1369996 3.363 c 0 -0.66499996 -0.03799963 -1.5105 -0.4369998 -2.166 c -0.42749977 -0.6934999 -1.0924997 -0.9024999 -1.6054997 -0.9024999 c -0.56050014 0 -1.2540002 0.26599997 -1.6435001 0.9879999 c -0.31349993 0.589 -0.38950014 1.2635001 -0.38950014 2.0805001 c 0 0.60800004 0.02850008 1.4155002 0.44650006 2.0615 c 0.3894999 0.5794997 1.026 0.8169999 1.5865002 0.8169999 c 0.6079998 0 1.2634997 -0.26600027 1.6434999 -0.8930001 c 0.36100006 -0.6079998 0.3989997 -1.3395 0.3989997 -1.9854999 Z m 1.4535003 -0.14249992 c 0 2.052 -1.3775 3.401 -3.4864998 3.401 c -2.1755002 0 -3.496 -1.4060001 -3.496 -3.401 c 0 -1.9665 1.3299999 -3.325 3.4865 -3.325 c 2.185 0 3.4959998 1.3775 3.4959998 3.325 Z "/>
        </symbol>
        <symbol id="gFA1FC7EC59589198651C268AA87CFA9" overflow="visible">
            <path d="M 0 0m 5.7 2.1185 c 0 1.2635 -0.86450005 2.1565 -2.2324998 2.1565 c -0.7125001 0 -1.2160001 -0.2945001 -1.4345 -0.46550012 v 0.46550012 l -1.6815 -0.07600021 v -0.44650006 c 0.589 0 0.6555 0 0.6555 -0.36099982 v -4.788 h -0.6555 v -0.44649994 l 1.197 0.02849996 l 1.1969999 -0.02849996 v 0.44649994 h -0.65549994 v 1.767 c 0.40849996 -0.3325 0.82649994 -0.4275 1.2160001 -0.4275 c 1.425 0 2.3939998 0.85499996 2.3939998 2.1755 Z m -1.2160001 0 c 0 -1.3395 -0.66499996 -1.8335 -1.2824998 -1.8335 c -0.13300014 0 -0.57949996 0 -1.007 0.513 c -0.104500055 0.12349999 -0.104500055 0.13300002 -0.104500055 0.31349993 v 2.014 c 0 0.18050003 0.009500027 0.18999982 0.14249992 0.32299995 c 0.3800001 0.3894999 0.8740001 0.44650006 1.083 0.44650006 c 0.6365001 0 1.1685 -0.5795002 1.1685 -1.7765 Z "/>
        </symbol>
        <symbol id="g8E4AB705C39E83BC179EF361244E3A33" overflow="visible">
            <path d="M 0 0m 3.629 1.178 v 0.5035 h -0.44650006 v -0.48450005 c 0 -0.6459999 -0.3039999 -0.87399995 -0.56999993 -0.87399995 c -0.5510001 0 -0.5510001 0.60800004 -0.5510001 0.82650006 v 2.6219997 h 1.3870001 v 0.44650006 h -1.3870001 v 1.8144999 h -0.44649994 c -0.0094999075 -0.9499998 -0.4749999 -1.8905001 -1.4154999 -1.9190001 v -0.34199977 h 0.7789999 v -2.603 c 0 -1.0165 0.8265 -1.2255 1.5009999 -1.2255 c 0.7220001 0 1.1495001 0.5415 1.1495001 1.235 Z "/>
        </symbol>
        <symbol id="g7EEFA4EF4A8E1B51F7FF3FDADB522CB5" overflow="visible">
            <path d="M 0 0m 2.717 0 v 0.44649997 h -0.589 v 3.8285 l -1.653 -0.07600021 v -0.44650006 c 0.5604999 0 0.627 0 0.627 -0.37049985 v -2.9355 h -0.65550005 v -0.44649997 l 1.159 0.028499998 Z m -0.4560001 5.7665 c 0 0.40849972 -0.33249998 0.7409997 -0.74099994 0.7409997 c -0.40850008 0 -0.741 -0.33249998 -0.741 -0.7409997 c 0 -0.4085002 0.33249992 -0.7410002 0.741 -0.7410002 c 0.40849996 0 0.74099994 0.33249998 0.74099994 0.7410002 Z "/>
        </symbol>
        <symbol id="g5B62D46FA7FDE2C1F29D1045022E1B90" overflow="visible">
            <path d="M 0 0m 8.8825 0 v 0.44649997 h -0.6555004 v 2.4604998 c 0 0.9785001 -0.48449945 1.3680003 -1.4629993 1.3680003 c -0.86450005 0 -1.3585 -0.47500014 -1.6055002 -0.9120002 c -0.19000006 0.8835001 -1.0639997 0.9120002 -1.425 0.9120002 c -0.82649994 0 -1.3679998 -0.42750025 -1.6719999 -1.0260003 v 1.0260003 l -1.6339998 -0.07600021 v -0.44650006 c 0.589 0 0.65549994 0 0.65549994 -0.37049985 v -2.9355 h -0.65549994 v -0.44649997 l 1.1969999 0.028499998 l 1.1969999 -0.028499998 v 0.44649997 h -0.65549994 v 1.9855 c 0 1.0355 0.82649994 1.5009999 1.4154999 1.5009999 c 0.32299995 0 0.5319998 -0.19000006 0.5319998 -0.92149997 v -2.5649998 h -0.6554997 v -0.44649997 l 1.1969998 0.028499998 l 1.197 -0.028499998 v 0.44649997 h -0.65549994 v 1.9855 c 0 1.0355 0.82649994 1.5009999 1.4155002 1.5009999 c 0.32299995 0 0.5319996 -0.19000006 0.5319996 -0.92149997 v -2.5649998 h -0.65549994 v -0.44649997 l 1.197 0.028499998 Z "/>
        </symbol>
        <symbol id="gF966DFA5D981C3E47E2321E744E21F5F" overflow="visible">
            <path d="M 0 0m 3.9424999 1.3299999 c 0 0.40850008 -0.19000006 0.74099994 -0.52250004 1.007 c -0.37049985 0.27550006 -0.6745 0.33249998 -1.4154999 0.4560001 c -0.35149992 0.06649995 -0.969 0.171 -0.969 0.6174998 c 0 0.589 0.8835 0.589 1.064 0.589 c 0.71249986 0 1.0734999 -0.27549982 1.121 -0.79799986 c 0.009499788 -0.14249992 0.018999815 -0.19000006 0.2184999 -0.19000006 c 0.22799993 0 0.22799993 0.047500134 0.22799993 0.26600003 v 0.76 c 0 0.18050003 0 0.2659998 -0.171 0.2659998 c -0.03799987 0 -0.05699992 0 -0.4275 -0.18050003 c -0.24699998 0.12350035 -0.57949996 0.18050003 -0.95949984 0.18050003 c -0.2850001 0 -1.7479999 0 -1.7479999 -1.2444997 c 0 -0.3800001 0.19 -0.6365001 0.38 -0.7980001 c 0.37999994 -0.33249998 0.741 -0.38950002 1.4725001 -0.5224999 c 0.342 -0.05700004 1.0544999 -0.18050003 1.0544999 -0.74100006 c 0 -0.7125 -0.8740001 -0.7125 -1.083 -0.7125 c -1.007 0 -1.254 0.6934999 -1.368 1.102 c -0.047500014 0.13300002 -0.09499997 0.13300002 -0.22799999 0.13300002 c -0.22799999 0 -0.22799999 -0.05700004 -0.22799999 -0.27550006 v -1.0354999 c 0 -0.1805 0 -0.26599997 0.171 -0.26599997 c 0.06649995 0 0.0855 0 0.28499997 0.14249998 l 0.24700004 0.1615 c 0.43699992 -0.304 0.9309999 -0.304 1.1209999 -0.304 c 0.29449987 0 1.7574999 0 1.7574999 1.387 Z "/>
        </symbol>
        <symbol id="gDEEB100C61B237A40D2BAF1BA8E56992" overflow="visible">
            <path d="M 0 0m 5.2535 0.22799999 c 0 0.21849999 -0.12350035 0.21849999 -0.24700022 0.21849999 c -0.5794997 0.009499997 -0.5794997 0.13299999 -0.5794997 0.3515 v 2.0425 c 0 0.8455 -0.6745002 1.4629998 -2.0900002 1.4629998 c -0.5415 0 -1.7004999 -0.03799963 -1.7004999 -0.87399983 c 0 -0.41799998 0.33249998 -0.5985 0.589 -0.5985 c 0.2945 0 0.5984999 0.19950008 0.5984999 0.5985 c 0 0.2850001 -0.18049991 0.44650006 -0.20899999 0.46550012 c 0.26600003 0.05699992 0.57000005 0.06649995 0.68400013 0.06649995 c 0.71249986 0 1.0449998 -0.39899993 1.0449998 -1.121 v -0.32299995 c -0.6745 -0.02850008 -3.0874999 -0.11400008 -3.0874999 -1.4914999 c 0 -0.91200006 1.178 -1.0830001 1.8334999 -1.0830001 c 0.76 0 1.2065 0.38949996 1.4154999 0.78849995 c 0 -0.2945 0 -0.73149997 0.9879999 -0.73149997 h 0.45599985 c 0.19000006 0 0.30400038 0 0.30400038 0.22799999 Z m -1.9095001 1.0925 c 0 -0.91200006 -0.87399983 -1.0355 -1.1115 -1.0355 c -0.48449993 0 -0.8644999 0.3325 -0.8644999 0.75049996 c 0 1.0259999 1.501 1.159 1.976 1.1874999 Z "/>
        </symbol>
        <symbol id="gFCE0062CDCF4A638D4161CE4CECE343D" overflow="visible">
            <path d="M 0 0m 5.1489997 2.0709999 c 0 1.273 -0.8739996 2.2324998 -2.4225 2.2324998 c -1.5579998 0 -2.4225 -0.96899986 -2.4225 -2.2324998 c 0 -1.178 0.83599997 -2.1279998 2.4225 -2.1279998 c 1.596 0 2.4225 0.95949996 2.4225 2.1279998 Z m -1.2159998 0.104500055 c 0 -0.82649994 0 -1.8525 -1.2065 -1.8525 c -1.2064998 0 -1.2064998 1.026 -1.2064998 1.8525 c 0 0.4275 0 0.91199994 0.16149998 1.2349999 c 0.18050003 0.35150003 0.57949996 0.5510001 1.0449998 0.5510001 c 0.39900017 0 0.7980001 -0.15199995 1.007 -0.48449993 c 0.19950008 -0.3230002 0.19950008 -0.8455 0.19950008 -1.3015001 Z "/>
        </symbol>
        <symbol id="gFBCC6C9BAD7B5633F4FD59D2E6C896D4" overflow="visible">
            <path d="M 0 0m 5.8424997 0 v 0.44649997 h -0.65549994 v 2.4604998 c 0 0.99749994 -0.513 1.3680003 -1.4629998 1.3680003 c -0.9120002 0 -1.4155002 -0.54150033 -1.6625001 -1.0260003 v 1.0260003 l -1.6339998 -0.07600021 v -0.44650006 c 0.589 0 0.65549994 0 0.65549994 -0.37049985 v -2.9355 h -0.65549994 v -0.44649997 l 1.1969999 0.028499998 l 1.1969999 -0.028499998 v 0.44649997 h -0.65549994 v 1.9855 c 0 1.0355 0.8169999 1.5009999 1.4154999 1.5009999 c 0.32299995 0 0.5225003 -0.19950008 0.5225003 -0.92149997 v -2.5649998 h -0.6555002 v -0.44649997 l 1.1969998 0.028499998 Z "/>
        </symbol>
        <symbol id="gC2FA9689F1A8A88644E6770FA558780E" overflow="visible">
            <path d="M 0 0m 3.992 1.488 c 0 0.8000001 -0.5279999 1.4560002 -1.2 1.616 l -1.0239999 0.24800014 c -0.49600005 0.119999886 -0.8080001 0.55200005 -0.8080001 1.0159998 c 0 0.5600004 0.43200004 1.0480003 1.056 1.0480003 c 1.3360002 0 1.5120001 -1.3120003 1.5600002 -1.6720002 c 0.007999897 -0.048000097 0.007999897 -0.095999956 0.095999956 -0.095999956 c 0.10400009 0 0.10400009 0.03999996 0.10400009 0.19199991 v 1.6080003 c 0 0.13599968 0 0.19199991 -0.08800006 0.19199991 c -0.055999994 0 -0.06400013 -0.007999897 -0.120000124 -0.10400009 l -0.27999997 -0.45599985 c -0.24000001 0.23199987 -0.5680001 0.55999994 -1.28 0.55999994 c -0.88800013 0 -1.5600002 -0.704 -1.5600002 -1.552 c 0 -0.66400003 0.42400002 -1.2480001 1.0480001 -1.4640002 c 0.08800006 -0.032000065 0.49600005 -0.12800002 1.056 -0.26399994 c 0.21600008 -0.055999994 0.4560001 -0.11199999 0.68000007 -0.408 c 0.16799998 -0.20800006 0.24800014 -0.47200012 0.24800014 -0.73600006 c 0 -0.5680001 -0.4000001 -1.144 -1.072 -1.144 c -0.23200011 0 -0.84000015 0.04 -1.2640002 0.432 c -0.46400005 0.43200004 -0.48800004 0.94400007 -0.49600005 1.2320001 c -0.007999957 0.08000004 -0.07199997 0.08000004 -0.095999956 0.08000004 c -0.10400003 0 -0.10400003 -0.055999994 -0.10400003 -0.20000005 v -1.6 c 0 -0.136 0 -0.19200002 0.088 -0.19200002 c 0.055999994 0 0.06400001 0.016000003 0.120000005 0.10400001 c 0 0 0.023999989 0.032 0.28800005 0.456 c 0.24799997 -0.272 0.76000005 -0.56 1.4720001 -0.56 c 0.9360001 0 1.576 0.78400004 1.576 1.664 Z "/>
        </symbol>
        <symbol id="gA2E6FDCC04B48F69534D177C70D2725E" overflow="visible">
            <path d="M 0 0m 1.9760001 0 v 0.24800001 c -0.528 0 -0.56000006 0.040000007 -0.56000006 0.352 v 2.9360003 l -1.12 -0.08800006 v -0.24800014 c 0.52000004 0 0.59200007 -0.04799986 0.59200007 -0.43999982 v -2.1520002 c 0 -0.36 -0.08800006 -0.36 -0.6240001 -0.36 v -0.24800001 l 0.88000005 0.024 c 0.27999997 0 0.56000006 -0.015999999 0.832 -0.024 Z m -0.44000006 4.8320003 c 0 0.21600008 -0.1839999 0.4239998 -0.4239999 0.4239998 c -0.27200007 0 -0.4320001 -0.22399998 -0.4320001 -0.4239998 c 0 -0.21600008 0.18400002 -0.42400026 0.42400008 -0.42400026 c 0.27199996 0 0.43199992 0.22400045 0.43199992 0.42400026 Z "/>
        </symbol>
        <symbol id="g18944438FFE1E4B4DDABF154A6A49177" overflow="visible">
            <path d="M 0 0m 6.504 0 v 0.24800001 c -0.4159999 0 -0.6159997 0 -0.6240001 0.24000002 v 1.528 c 0 0.6880002 0 0.9360001 -0.24799967 1.2240002 c -0.11199999 0.13599992 -0.3760004 0.296 -0.84000015 0.296 c -0.67199993 0 -1.0240002 -0.48000002 -1.1600001 -0.78400016 c -0.11199999 0.6960001 -0.704 0.78400016 -1.0640001 0.78400016 c -0.584 0 -0.96000004 -0.3440001 -1.184 -0.84000015 v 0.84000015 l -1.128 -0.08800006 v -0.24800014 c 0.56000006 0 0.6240001 -0.055999994 0.6240001 -0.44799995 v -2.144 c 0 -0.36 -0.088 -0.36 -0.6240001 -0.36 v -0.24800001 l 0.90400004 0.024 l 0.8959999 -0.024 v 0.24800001 c -0.5359999 0 -0.62399995 0 -0.62399995 0.36 v 1.4720001 c 0 0.832 0.56799996 1.28 1.08 1.28 c 0.50399995 0 0.592 -0.43199992 0.592 -0.888 v -1.8640001 c 0 -0.36 -0.08800006 -0.36 -0.6240001 -0.36 v -0.24800001 l 0.90400004 0.024 l 0.89600015 -0.024 v 0.24800001 c -0.536 0 -0.6240001 0 -0.6240001 0.36 v 1.4720001 c 0 0.832 0.56799984 1.28 1.0799999 1.28 c 0.5040002 0 0.592 -0.43199992 0.592 -0.888 v -1.8640001 c 0 -0.36 -0.08799982 -0.36 -0.6240001 -0.36 v -0.24800001 l 0.9040003 0.024 Z "/>
        </symbol>
        <symbol id="g8577653153C95CD1440DDAAAA00AD810" overflow="visible">
            <path d="M 0 0m 3.7680001 1.7120001 c 0 1.0239999 -0.79999995 1.872 -1.7680001 1.872 c -1 0 -1.776 -0.872 -1.776 -1.872 c 0 -1.0320001 0.832 -1.8000002 1.7680001 -1.8000002 c 0.96799994 0 1.776 0.78400004 1.776 1.8000002 Z m -0.66400003 0.06400001 c 0 -0.2880001 0 -0.72000015 -0.17599988 -1.072 c -0.17600012 -0.36000004 -0.5280001 -0.59200007 -0.9280002 -0.59200007 c -0.34399986 0 -0.696 0.168 -0.91199994 0.536 c -0.19999999 0.352 -0.19999999 0.84000003 -0.19999999 1.1280001 c 0 0.31199992 0 0.7440001 0.19199997 1.0960001 c 0.21599996 0.36800003 0.592 0.536 0.91200006 0.536 c 0.352 0 0.6960001 -0.17600012 0.90400004 -0.52 c 0.20799994 -0.3440001 0.20799994 -0.8080001 0.20799994 -1.1120001 Z "/>
        </symbol>
        <symbol id="g11AFE4FF67A66904825062A4ABF70586" overflow="visible">
            <path d="M 0 0m 4.28 0 v 0.24800001 c -0.41600013 0 -0.61599994 0 -0.6240001 0.24000002 v 1.528 c 0 0.6880002 0 0.9360001 -0.2479999 1.2240002 c -0.11199999 0.13599992 -0.37600017 0.296 -0.84000015 0.296 c -0.584 0 -0.96000004 -0.3440001 -1.184 -0.84000015 v 0.84000015 l -1.128 -0.08800006 v -0.24800014 c 0.56000006 0 0.6240001 -0.055999994 0.6240001 -0.44799995 v -2.144 c 0 -0.36 -0.088 -0.36 -0.6240001 -0.36 v -0.24800001 l 0.90400004 0.024 l 0.8959999 -0.024 v 0.24800001 c -0.5359999 0 -0.62399995 0 -0.62399995 0.36 v 1.4720001 c 0 0.832 0.56799996 1.28 1.08 1.28 c 0.50399995 0 0.592 -0.43199992 0.592 -0.888 v -1.8640001 c 0 -0.36 -0.08800006 -0.36 -0.6240001 -0.36 v -0.24800001 l 0.90400004 0.024 Z "/>
        </symbol>
        <symbol id="g6275D0CA679A7CC69AC9C7F8AD7018D" overflow="visible">
            <path d="M 0 0m 5.728 0 v 0.24800001 h -0.19199991 c -0.6160002 0 -0.63199997 0.088000014 -0.63199997 0.376 v 4.216 c 0 0.2880001 0.015999794 0.37599993 0.63199997 0.37599993 h 0.19199991 v 0.24800014 c -0.27999973 -0.024000168 -0.87199974 -0.024000168 -1.1760001 -0.024000168 c -0.3039999 0 -0.9039998 0 -1.1839998 0.024000168 v -0.24800014 h 0.19199991 c 0.61599994 0 0.6320002 -0.08799982 0.6320002 -0.37599993 v -1.872 h -2.3920002 v 1.872 c 0 0.2880001 0.016000032 0.37599993 0.6320001 0.37599993 h 0.19199991 v 0.24800014 c -0.27999997 -0.024000168 -0.872 -0.024000168 -1.176 -0.024000168 c -0.30400002 0 -0.90400004 0 -1.184 0.024000168 v -0.24800014 h 0.19200003 c 0.616 0 0.632 -0.08799982 0.632 -0.37599993 v -4.216 c 0 -0.288 -0.016000032 -0.376 -0.632 -0.376 h -0.19200003 v -0.24800001 c 0.28000003 0.024 0.87200004 0.024 1.1760001 0.024 c 0.30400002 0 0.90400004 0 1.184 -0.024 v 0.24800001 h -0.19199991 c -0.61600006 0 -0.6320001 0.088000014 -0.6320001 0.376 v 2.096 h 2.3920002 v -2.096 c 0 -0.288 -0.01600027 -0.376 -0.6320002 -0.376 h -0.19199991 v -0.24800001 c 0.27999997 0.024 0.872 0.024 1.1759999 0.024 c 0.3039999 0 0.9040003 0 1.184 -0.024 Z "/>
        </symbol>
        <symbol id="gA7CF7CE29AACBA04C242774DEB5A64E8" overflow="visible">
            <path d="M 0 0m 2.0400002 0 v 0.24800001 c -0.53600013 0 -0.6240002 0 -0.6240002 0.36 v 4.9440002 l -1.152 -0.08799982 v -0.24800014 c 0.56000006 0 0.6240001 -0.055999756 0.6240001 -0.44799995 v -4.16 c 0 -0.36 -0.08800006 -0.36 -0.6240001 -0.36 v -0.24800001 l 0.8880001 0.024 Z "/>
        </symbol>
        <symbol id="g55482B66D6D485EEE0201577892864A7" overflow="visible">
            <path d="M 0 0m 3.5360003 2.736 c 0 0.23200011 -0.19200015 0.42400002 -0.42400002 0.42400002 c -0.23200011 0 -0.42400002 -0.19199991 -0.42400002 -0.42400002 c 0 -0.23199987 0.19199991 -0.42400002 0.42400002 -0.42400002 c 0.23199987 0 0.42400002 0.19200015 0.42400002 0.42400002 Z "/>
        </symbol>
        <symbol id="gE69756FDFBC07A8F991B44DBD61D9CFB" overflow="visible">
            <path d="M 0 0m 5.656 2.6880002 c 0 1.52 -1.0799999 2.776 -2.448 2.776 h -2.9280002 v -0.24800014 h 0.19200003 c 0.61600006 0 0.6320001 -0.08799982 0.6320001 -0.37599993 v -4.216 c 0 -0.288 -0.016000032 -0.376 -0.6320001 -0.376 h -0.19200003 v -0.24800001 h 2.9280002 c 1.3439999 0 2.448 1.184 2.448 2.6880002 Z m -0.7999997 0 c 0 -0.88800013 -0.15200043 -1.3680001 -0.44000006 -1.7600002 c -0.16000032 -0.21600002 -0.6160002 -0.68 -1.4240003 -0.68 h -0.8080001 c -0.37599993 0 -0.39199996 0.05600001 -0.39199996 0.32 v 4.3280005 c 0 0.26399994 0.016000032 0.3199997 0.39199996 0.3199997 h 0.8000002 c 0.49600005 0 1.0479999 -0.17599964 1.4559999 -0.74399996 c 0.34400034 -0.47200012 0.41600037 -1.1599998 0.41600037 -1.7839999 Z "/>
        </symbol>
        <symbol id="g12D20A93472E248340E9B0FB6C3BEAE2" overflow="visible">
            <path d="M 0 0m 5.728 5.216 v 0.24800014 l -0.94399977 -0.024000168 l -0.95200014 0.024000168 v -0.24800014 c 0.8239999 0 0.8239999 -0.37599993 0.8239999 -0.592 v -2.776 c 0 -1.136 -0.776 -1.776 -1.536 -1.776 c -0.37599993 0 -1.32 0.20000002 -1.32 1.72 v 3.048 c 0 0.2880001 0.016000032 0.37599993 0.6320001 0.37599993 h 0.19199991 v 0.24800014 c -0.27999997 -0.024000168 -0.872 -0.024000168 -1.176 -0.024000168 c -0.30400002 0 -0.90400004 0 -1.184 0.024000168 v -0.24800014 h 0.19200003 c 0.616 0 0.632 -0.08799982 0.632 -0.37599993 v -3.016 c 0 -1.128 0.928 -2.0000002 2.016 -2.0000002 c 0.9200001 0 1.6400003 0.744 1.776 1.656 c 0.024000168 0.16000009 0.024000168 0.23200011 0.024000168 0.55200005 v 2.56 c 0 0.26400042 0 0.6240001 0.8239999 0.6240001 Z "/>
        </symbol>
        <symbol id="gD732957BDA558C5C30EE7F4112DA50B0" overflow="visible">
            <path d="M 0 0m 3.5920002 1.3920001 h -0.20000005 c -0.03999996 -0.24000001 -0.095999956 -0.59200007 -0.17600012 -0.7120001 c -0.055999994 -0.06399995 -0.5839999 -0.06399995 -0.76 -0.06399995 h -1.44 l 0.84800005 0.824 c 1.2480001 1.1040001 1.7280002 1.536 1.7280002 2.3360002 c 0 0.91199994 -0.72 1.5519998 -1.6960001 1.5519998 c -0.9040001 0 -1.4960002 -0.73600006 -1.4960002 -1.448 c 0 -0.44799995 0.4 -0.44799995 0.42400005 -0.44799995 c 0.13599998 0 0.41599995 0.095999956 0.41599995 0.42400002 c 0 0.20799994 -0.14399993 0.41600013 -0.42399997 0.41600013 c -0.06400001 0 -0.07999998 0 -0.10400003 -0.007999897 c 0.18400002 0.52 0.61600006 0.816 1.08 0.816 c 0.72800016 0 1.072 -0.64800024 1.072 -1.3040001 c 0 -0.6400001 -0.39999986 -1.2720001 -0.8399999 -1.7680001 l -1.5360001 -1.7120001 c -0.08800003 -0.088 -0.08800003 -0.104 -0.08800003 -0.296 h 2.9680002 Z "/>
        </symbol>
        <symbol id="g36D8BF04758EEE8B2BD3658E1687701F" overflow="visible">
            <path d="M 0 0m 3.68 2.5600002 c 0 0.63999987 -0.03999996 1.28 -0.31999993 1.872 c -0.36800003 0.7680001 -1.0239999 0.8959999 -1.3600001 0.8959999 c -0.4799999 0 -1.0639999 -0.2079997 -1.392 -0.95199966 c -0.256 -0.5520003 -0.29600003 -1.1760004 -0.29600003 -1.8160002 c 0 -0.60000014 0.032000005 -1.3200002 0.36000004 -1.9280002 c 0.34399998 -0.648 0.928 -0.808 1.32 -0.808 c 0.43199992 0 1.04 0.16800001 1.392 0.92800003 c 0.25600004 0.552 0.296 1.1760001 0.296 1.8080001 Z m -0.66400003 0.095999956 c 0 -0.60000014 0 -1.144 -0.08799982 -1.6560001 c -0.120000124 -0.76 -0.5760002 -1 -0.9360001 -1 c -0.31200004 0 -0.78400004 0.2 -0.9280001 0.96800005 c -0.08799994 0.48000002 -0.08799994 1.216 -0.08799994 1.6880001 c 0 0.5120001 0 1.04 0.06400001 1.4720001 c 0.15199995 0.95200014 0.752 1.0240002 0.952 1.0240002 c 0.26399994 0 0.79200006 -0.14400005 0.944 -0.93600035 c 0.07999992 -0.44799995 0.07999992 -1.056 0.07999992 -1.56 Z "/>
        </symbol>
        <symbol id="gF1CA63E495D27F82724D32B734D301F9" overflow="visible">
            <path d="M 0 0m 3.5920002 1.608 c 0 0.95200014 -0.65600014 1.7520001 -1.5200002 1.7520001 c -0.38399994 0 -0.7279999 -0.12800002 -1.016 -0.408 v 1.56 c 0.16000009 -0.04799986 0.42400002 -0.10400009 0.68000007 -0.10400009 c 0.98399997 0 1.5440001 0.72800016 1.5440001 0.83200026 c 0 0.04799986 -0.024000168 0.08799982 -0.08000016 0.08799982 c 0 0 -0.02399993 0 -0.06399989 -0.023999691 c -0.16000009 -0.07200003 -0.55200005 -0.23200035 -1.088 -0.23200035 c -0.32000005 0 -0.6880001 0.056000233 -1.0640001 0.22400045 c -0.06400001 0.023999691 -0.095999956 0.023999691 -0.095999956 0.023999691 c -0.08000004 0 -0.08000004 -0.06400013 -0.08000004 -0.19199991 v -2.368 c 0 -0.14400005 0 -0.20800018 0.11199999 -0.20800018 c 0.056000054 0 0.07200003 0.024000168 0.10400003 0.07200003 c 0.08800006 0.12800002 0.38400006 0.5600002 1.032 0.5600002 c 0.41600013 0 0.6160002 -0.36800003 0.68000007 -0.5120001 c 0.12800002 -0.296 0.14400005 -0.60800004 0.14400005 -1.0080001 c 0 -0.27999997 0 -0.76 -0.19199991 -1.096 c -0.19200015 -0.312 -0.48800015 -0.52000004 -0.85600007 -0.52000004 c -0.5840001 0 -1.0400001 0.42400002 -1.1760001 0.8960001 c 0.023999989 -0.008000016 0.048000038 -0.016000032 0.13600004 -0.016000032 c 0.26399994 0 0.39999998 0.19999999 0.39999998 0.39200002 c 0 0.19200003 -0.13600004 0.39200008 -0.39999998 0.39200008 c -0.11200005 0 -0.39200005 -0.055999994 -0.39200005 -0.42400002 c 0 -0.6880001 0.55200005 -1.4640001 1.4480001 -1.4640001 c 0.928 0 1.7440002 0.768 1.7440002 1.784 Z "/>
        </symbol>
    </defs>
</svg>
