<svg class="typst-doc" viewBox="0 0 240 33.1238" width="240pt" height="33.1238pt" xmlns="http://www.w3.org/2000/svg" xmlns:xlink="http://www.w3.org/1999/xlink" xmlns:h5="http://www.w3.org/1999/xhtml">
    <path class="typst-shape" fill="#ffffff" fill-rule="nonzero" d="M 0 0v 33.1238 h 240 v -33.1238 Z "/>
    <g>
        <g class="typst-group" transform="matrix(1 0 0 1 14 12)">
            <g>
                <g class="typst-text" transform="matrix(1 0 0 -1 0 9.123800000000001)">
                    <use xlink:href="#g71AB15001C7B776DDCF12C2EDD25814A" x="0" y="0" fill="#000000" fill-rule="nonzero"/>
                    <use xlink:href="#g510CAC1A5F558882B2E7188FF2487199" x="12.023200000000001" y="0" fill="#000000" fill-rule="nonzero"/>
                    <use xlink:href="#g8696E8AE5FFBA73A34BFEDA282B6913C" x="18.3274" y="0" fill="#000000" fill-rule="nonzero"/>
                    <use xlink:href="#g8A624E3B5568B4F00D1D74E4727181D4" x="25.7621" y="0" fill="#000000" fill-rule="nonzero"/>
                    <use xlink:href="#gAC381CA530D8EE1B115643ECCD9F52F5" x="34.2608" y="0" fill="#000000" fill-rule="nonzero"/>
                    <use xlink:href="#gE1DF6C4A1434D1BE8BFBFE3566ADB2B9" x="38.5035" y="0" fill="#000000" fill-rule="nonzero"/>
                    <use xlink:href="#g6C2CFE733193669592C671CDD30C70F" x="45.512600000000006" y="0" fill="#000000" fill-rule="nonzero"/>
                    <use xlink:href="#g674E322B37DAAAAEF86B1E80BFCBFC29" x="53.5857" y="0" fill="#000000" fill-rule="nonzero"/>
                    <use xlink:href="#gCD53B073011ECD9D71447BE1B105B6D9" x="64.6247" y="0" fill="#000000" fill-rule="nonzero"/>
                    <use xlink:href="#gE1DF6C4A1434D1BE8BFBFE3566ADB2B9" x="76.3553" y="0" fill="#000000" fill-rule="nonzero"/>
                    <use xlink:href="#g8D15FB8190E5E4F9D2697A97E33A2998" x="83.3644" y="0" fill="#000000" fill-rule="nonzero"/>
                    <use xlink:href="#g1550E131561FEA4AB71E9C25E6BB49EB" x="89.4026" y="0" fill="#000000" fill-rule="nonzero"/>
                    <use xlink:href="#gE1DF6C4A1434D1BE8BFBFE3566ADB2B9" x="96.19890000000001" y="0" fill="#000000" fill-rule="nonzero"/>
                    <use xlink:href="#g6C2CFE733193669592C671CDD30C70F" x="103.20800000000001" y="0" fill="#000000" fill-rule="nonzero"/>
                    <use xlink:href="#g674E322B37DAAAAEF86B1E80BFCBFC29" x="111.28110000000001" y="0" fill="#000000" fill-rule="nonzero"/>
                </g>
            </g>
        </g>
    </g>
    <defs id="glyph">
        <symbol id="g71AB15001C7B776DDCF12C2EDD25814A" overflow="visible">
            <path d="M 0 0m 11.2385 3.0456998 v 0.62510014 c -0.46549988 -0.039900064 -1.6225996 -0.039900064 -2.1413002 -0.039900064 c -0.7713995 0 -2.0082994 0 -2.7264996 0.039900064 v -0.62510014 h 1.9152002 v -1.3432999 c 0 -0.25269997 0 -0.63839996 -0.5187001 -0.9443 c -0.34579992 -0.19949996 -0.7714 -0.27929997 -1.197 -0.27929997 c -1.1438003 0 -2.2876 0.3857 -2.9393 1.2103 c -0.5718999 0.7314999 -0.74479985 1.6757998 -0.74479985 2.8861 c 0 1.4895997 0.2659998 2.2609997 0.7580998 2.9126997 c 0.53200006 0.66499996 1.5560999 1.1570997 2.8329 1.1570997 c 1.4231 0 2.6866002 -1.0107994 2.9792 -2.6998997 c 0.039899826 -0.25269985 0.053199768 -0.27929974 0.35910034 -0.27929974 c 0.34579945 0 0.3590994 0.026599884 0.3590994 0.3723998 v 2.8595004 c 0 0.25269985 0 0.37239933 -0.23939991 0.37239933 c -0.11969948 0 -0.14629936 -0.026599884 -0.25269985 -0.11969948 l -0.8778 -0.7847004 c -0.97090006 0.77140045 -1.9284997 0.9043999 -2.6201 0.9043999 c -3.2717998 0 -5.3332996 -1.9550996 -5.3332996 -4.7081995 c 0 -2.6467001 1.9285 -4.7082 5.3599 -4.7082 c 0.4389 0 1.8088002 0.026600003 2.4738002 0.8512 c 0.41229916 -0.35909998 1.2102995 -0.70489997 1.3033991 -0.70489997 c 0.18620014 0 0.18620014 0.17289999 0.18620014 0.3724 v 2.6732998 Z "/>
        </symbol>
        <symbol id="g510CAC1A5F558882B2E7188FF2487199" overflow="visible">
            <path d="M 0 0m 5.8786 4.8944 c 0 0.7048998 -0.7182002 1.0905995 -1.4098 1.0905995 c -0.93100023 0 -1.463 -0.66499996 -1.7689002 -1.5028996 v 1.5028996 l -2.2078 -0.106399536 v -0.62510014 c 0.8246 0 0.91769993 0 0.91769993 -0.5187001 v -4.1096997 h -0.91769993 v -0.6251 l 1.6757998 0.039899997 c 0.5054002 0 1.3566 0 1.8353999 -0.039899997 v 0.6251 h -1.1570997 v 2.3274999 c 0 0.931 0.33249998 2.5535998 1.6624999 2.5535998 c 0 0 -0.25269985 -0.22609997 -0.25269985 -0.6117997 c 0 -0.5453 0.42560005 -0.8113003 0.8112998 -0.8113003 c 0.38570023 0 0.8113003 0.2793002 0.8113003 0.8113003 Z "/>
        </symbol>
        <symbol id="g8696E8AE5FFBA73A34BFEDA282B6913C" overflow="visible">
            <path d="M 0 0m 7.3549 0.31919998 c 0 0.30590004 -0.1729002 0.30590004 -0.34579992 0.30590004 c -0.8113003 0.013299942 -0.8113003 0.18619996 -0.8113003 0.4921 v 2.8595 c 0 1.1837001 -0.9442997 2.0482001 -2.9259996 2.0482001 c -0.75810003 0 -2.3807 -0.053200245 -2.3807 -1.2235999 c 0 -0.5852003 0.46549994 -0.83790016 0.8245999 -0.83790016 c 0.4123001 0 0.8378999 0.2793002 0.8378999 0.83790016 c 0 0.3989997 -0.25269985 0.62509966 -0.29259992 0.6517 c 0.37240005 0.07979965 0.7980001 0.093099594 0.9576001 0.093099594 c 0.9974997 0 1.463 -0.55859995 1.463 -1.5693998 v -0.45219994 c -0.9443002 -0.039900064 -4.3225 -0.15960002 -4.3225 -2.0881 c 0 -1.2767999 1.6492001 -1.5162 2.5668998 -1.5162 c 1.0640001 0 1.6891 0.5453 1.9817002 1.1039 c 0 -0.41229993 0 -1.0241 1.3831997 -1.0241 h 0.6384001 c 0.26600027 0 0.42560005 0 0.42560005 0.31919998 Z m -2.6732998 1.5295 c 0 -1.2767999 -1.2236001 -1.4496999 -1.5561001 -1.4496999 c -0.6782999 0 -1.2103 0.4655 -1.2103 1.0507 c 0 1.4364 2.1014001 1.6226 2.7664 1.6625 Z "/>
        </symbol>
        <symbol id="g8A624E3B5568B4F00D1D74E4727181D4" overflow="visible">
            <path d="M 0 0m 7.9933 0 v 0.6251 c -0.8246002 0 -0.9177003 0 -0.9177003 0.5187 v 8.0864 l -2.3540998 -0.106399536 v -0.62510014 c 0.82459974 0 0.9176998 0 0.9176998 -0.5187001 v -2.5935001 c -0.66499996 0.5187001 -1.3565998 0.5984998 -1.7954998 0.5984998 c -1.9418 0 -3.3383 -1.1703997 -3.3383 -3.0456996 c 0 -1.7556001 1.2235999 -3.0191 3.192 -3.0191 c 0.81130004 0 1.4497001 0.31919998 1.8620002 0.6517 v -0.6517 Z m -2.4338999 1.3699 c -0.1729002 -0.23940003 -0.7182002 -0.9709 -1.7290001 -0.9709 c -1.6226001 0 -1.6226001 1.6093001 -1.6226001 2.5403001 c 0 0.63839984 0 1.3565998 0.34579992 1.8752999 c 0.38570023 0.55859995 1.0108001 0.69159985 1.4231 0.69159985 c 0.75810003 0 1.2901001 -0.42560005 1.5827003 -0.8112998 Z "/>
        </symbol>
        <symbol id="gAC381CA530D8EE1B115643ECCD9F52F5" overflow="visible">
            <path d="M 0 0m 3.8037999 0 v 0.6251 h -0.8246 v 5.3598995 l -2.3142 -0.106399536 v -0.62510014 c 0.78470004 0 0.8778 0 0.8778 -0.5187001 v -4.1096997 h -0.91769993 v -0.6251 l 1.6226 0.039899997 Z m -0.63839984 8.0731 c 0 0.5718994 -0.46550012 1.0373993 -1.0374 1.0373993 c -0.5719 0 -1.0374 -0.46549988 -1.0374 -1.0373993 c 0 -0.57190037 0.4655 -1.0374002 1.0374 -1.0374002 c 0.5718999 0 1.0374 0.46549988 1.0374 1.0374002 Z "/>
        </symbol>
        <symbol id="gE1DF6C4A1434D1BE8BFBFE3566ADB2B9" overflow="visible">
            <path d="M 0 0m 6.5702 1.5561 c 0 0.23939991 -0.25269985 0.23939991 -0.31920004 0.23939991 c -0.22609997 0 -0.25269985 -0.06649995 -0.33249998 -0.27929997 c -0.2793002 -0.63839996 -1.0374002 -1.0639999 -1.9018998 -1.0639999 c -1.8753002 0 -1.8886001 1.7688999 -1.8886001 2.4472 h 4.0165997 c 0.29260015 0 0.42560005 0 0.42560005 0.35909986 c 0 0.4123001 -0.07980013 1.3831999 -0.7448001 2.0482 c -0.49209976 0.4788003 -1.197 0.7182002 -2.1146998 0.7182002 c -2.128 0 -3.2851 -1.3699002 -3.2851 -3.0324001 c 0 -1.7821999 1.3299999 -3.0722997 3.4713 -3.0722997 c 2.1014001 0 2.6733 1.4097999 2.6733 1.6359 Z m -1.2635002 1.7822 h -3.1786997 c 0.026599884 0.5186999 0.039899826 1.0772998 0.31920004 1.5161998 c 0.34579992 0.53200006 0.8778 0.69159985 1.2635 0.69159985 c 1.5560999 0 1.5826998 -1.7422998 1.5959997 -2.2077997 Z "/>
        </symbol>
        <symbol id="g6C2CFE733193669592C671CDD30C70F" overflow="visible">
            <path d="M 0 0m 8.1795 0 v 0.6251 h -0.9176998 v 3.4446998 c 0 1.3965001 -0.71819973 1.9151998 -2.0482001 1.9151998 c -1.2767997 0 -1.9816997 -0.75809956 -2.3274996 -1.4363999 v 1.4363999 l -2.2876 -0.106399536 v -0.62510014 c 0.8246 0 0.91769993 0 0.91769993 -0.5187001 v -4.1096997 h -0.91769993 v -0.6251 l 1.6757998 0.039899997 l 1.6758001 -0.039899997 v 0.6251 h -0.91770005 v 2.7796998 c 0 1.4496999 1.1438 2.1014 1.9817002 2.1014 c 0.45219994 0 0.7314997 -0.27929974 0.7314997 -1.2901001 v -3.5909996 h -0.9176998 v -0.6251 l 1.6757998 0.039899997 Z "/>
        </symbol>
        <symbol id="g674E322B37DAAAAEF86B1E80BFCBFC29" overflow="visible">
            <path d="M 0 0m 5.0806 1.6492 v 0.7049 h -0.62509966 v -0.6783 c 0 -0.9044 -0.42560005 -1.2235999 -0.7980001 -1.2235999 c -0.7714 0 -0.7714 0.8511999 -0.7714 1.1571 v 3.6707997 h 1.9417999 v 0.62510014 h -1.9417999 v 2.5402994 h -0.62510014 c -0.013299942 -1.3299994 -0.66499996 -2.6466994 -1.9817 -2.6865997 v -0.47879982 h 1.0906 v -3.6441998 c 0 -1.4231 1.1571 -1.7157 2.1014 -1.7157 c 1.0108001 0 1.6092999 0.7581 1.6092999 1.729 Z "/>
        </symbol>
        <symbol id="gCD53B073011ECD9D71447BE1B105B6D9" overflow="visible">
            <path d="M 0 0m 10.866099 4.4821 c 0 2.9259996 -1.9949999 4.6417003 -4.6283994 4.6417003 h -5.719 v -0.62510014 h 1.4363999 v -7.8736 h -1.4363999 v -0.6251 h 5.7323 c 2.6200995 0 4.6150994 1.6359 4.6150994 4.4821 Z m -1.9550991 0.013299942 c 0 -1.4497001 -0.15960026 -2.1546 -0.5852003 -2.7531 c -0.6384001 -0.90439993 -1.8088002 -1.1171999 -2.6201 -1.1171999 h -1.9417999 v 7.8736 h 1.9417999 c 0.8778 0 1.9817 -0.25269985 2.6334 -1.1837001 c 0.46549988 -0.6783004 0.57190037 -1.5827003 0.57190037 -2.8196 Z "/>
        </symbol>
        <symbol id="g8D15FB8190E5E4F9D2697A97E33A2998" overflow="visible">
            <path d="M 0 0m 5.5195 1.862 c 0 0.5718999 -0.2659998 1.0374 -0.7314997 1.4098 c -0.5187001 0.3857 -0.9443002 0.46549988 -1.9817002 0.63839984 c -0.4921 0.09309983 -1.3565999 0.23940015 -1.3565999 0.8644998 c 0 0.8246002 1.2369 0.8246002 1.4896001 0.8246002 c 0.99749994 0 1.5028996 -0.38570023 1.5693998 -1.1171999 c 0.013299942 -0.19950008 0.026599884 -0.26600027 0.3059001 -0.26600027 c 0.31920004 0 0.31920004 0.06650019 0.31920004 0.37240028 v 1.0639997 c 0 0.25270033 0 0.37240028 -0.23939991 0.37240028 c -0.053200245 0 -0.07980013 0 -0.59850025 -0.25269985 c -0.34579992 0.17289972 -0.81130004 0.25269985 -1.3432999 0.25269985 c -0.39900017 0 -2.4472 0 -2.4472 -1.7423 c 0 -0.53200006 0.26599997 -0.89109993 0.532 -1.1171999 c 0.53199995 -0.46550012 1.0374 -0.5453 2.0614998 -0.73150015 c 0.47880006 -0.07979989 1.4763002 -0.25269985 1.4763002 -1.0373999 c 0 -0.9975 -1.2236001 -0.9975 -1.5162001 -0.9975 c -1.4098 0 -1.7556001 0.9709 -1.9152 1.5428 c -0.06650007 0.18620002 -0.13300002 0.18620002 -0.31920004 0.18620002 c -0.31919998 0 -0.31919998 -0.07980013 -0.31919998 -0.3857001 v -1.4496999 c 0 -0.2527 0 -0.3724 0.23939997 -0.3724 c 0.09310001 0 0.119700015 0 0.39900005 0.1995 l 0.34579992 0.22609998 c 0.61179996 -0.4256 1.3034 -0.4256 1.5694001 -0.4256 c 0.41229987 0 2.4604998 0 2.4604998 1.9418 Z "/>
        </symbol>
        <symbol id="g1550E131561FEA4AB71E9C25E6BB49EB" overflow="visible">
            <path d="M 0 0m 6.3574 1.5561 c 0 0.1861999 -0.18620014 0.1861999 -0.31920004 0.1861999 c -0.23939991 0 -0.25269985 -0.026600003 -0.31920004 -0.19949996 c -0.34579992 -0.8379 -0.9842 -1.0906 -1.6624999 -1.0906 c -1.8487 0 -1.8487 1.9551 -1.8487 2.5669 c 0 0.7448001 0 2.4738 1.7156999 2.4738 c 0.46550012 0 0.6916001 -0.039899826 0.8645003 -0.07980013 c -0.23940039 -0.21280003 -0.26600027 -0.49209976 -0.26600027 -0.6117997 c 0 -0.5852003 0.46549988 -0.83790016 0.8246002 -0.83790016 c 0.41229963 0 0.8378997 0.2793002 0.8378997 0.83790016 c 0 1.1437998 -1.5428 1.2235999 -2.3142 1.2235999 c -2.3806999 0 -3.3648999 -1.5295 -3.3648999 -3.0723 c 0 -1.7689 1.2502 -3.0324 3.2984 -3.0324 c 2.1546 0 2.5536 1.5428 2.5536 1.6359 Z "/>
        </symbol>
    </defs>
</svg>
