<svg class="typst-doc" viewBox="0 0 240 85.55479999999999" width="240pt" height="85.55479999999999pt" xmlns="http://www.w3.org/2000/svg" xmlns:xlink="http://www.w3.org/1999/xlink" xmlns:h5="http://www.w3.org/1999/xhtml">
    <path class="typst-shape" fill="#ffffff" fill-rule="nonzero" d="M 0 0v 85.5548 h 240 v -85.5548 Z "/>
    <g>
        <g class="typst-text" transform="matrix(1 0 0 -1 57.4425 18.517)">
            <use xlink:href="#g5D13AD39941B498CEDC06EBD0F70B8F2" x="0" y="0" fill="#000000" fill-rule="nonzero"/>
            <use xlink:href="#g240D68F3B7AF4973A4E6B3B4024367C7" x="8.379" y="0" fill="#000000" fill-rule="nonzero"/>
            <use xlink:href="#gC86E2D9E393312FD1F271EEB788D2978" x="18.753" y="0" fill="#000000" fill-rule="nonzero"/>
            <use xlink:href="#gDABEB0193C4672B0B04E48272B000AC1" x="24.2155" y="0" fill="#000000" fill-rule="nonzero"/>
            <use xlink:href="#gE168FF92C92CCC07B47724EF62CFACCE" x="29.677999999999997" y="0" fill="#000000" fill-rule="nonzero"/>
            <use xlink:href="#g8EFD6AAE6D06C2AD11D2FDC436426696" x="38.778999999999996" y="0" fill="#000000" fill-rule="nonzero"/>
            <use xlink:href="#g43843BA5DBDED95BF7788E42306998A6" x="53.342499999999994" y="0" fill="#000000" fill-rule="nonzero"/>
            <use xlink:href="#g7EEFA4EF4A8E1B51F7FF3FDADB522CB5" x="59.91649999999999" y="0" fill="#000000" fill-rule="nonzero"/>
            <use xlink:href="#gFBCC6C9BAD7B5633F4FD59D2E6C896D4" x="62.94699999999999" y="0" fill="#000000" fill-rule="nonzero"/>
            <use xlink:href="#g373387FC08D0FADB0EB421231BF48F19" x="69.01749999999998" y="0" fill="#000000" fill-rule="nonzero"/>
            <use xlink:href="#gDEEB100C61B237A40D2BAF1BA8E56992" x="74.02399999999999" y="0" fill="#000000" fill-rule="nonzero"/>
            <use xlink:href="#gEA86C0299A26A2397F38B16262AB92AF" x="79.33449999999999" y="0" fill="#000000" fill-rule="nonzero"/>
            <use xlink:href="#gA1447EA321D480FB1041114404ECE694" x="87.47599999999998" y="0" fill="#000000" fill-rule="nonzero"/>
            <use xlink:href="#g6072586D101E36C88C2FE61D08BDE7ED" x="95.73149999999998" y="0" fill="#000000" fill-rule="nonzero"/>
            <use xlink:href="#gF36EA77ACFC0A0FDDB6D9F0877AA4A05" x="98.76199999999999" y="0" fill="#000000" fill-rule="nonzero"/>
            <use xlink:href="#g373387FC08D0FADB0EB421231BF48F19" x="104.22449999999999" y="0" fill="#000000" fill-rule="nonzero"/>
            <use xlink:href="#g1E1D17C3290AA982D6AE7C6102160DD2" x="109.231" y="0" fill="#000000" fill-rule="nonzero"/>
            <use xlink:href="#gEA86C0299A26A2397F38B16262AB92AF" x="115.30149999999999" y="0" fill="#000000" fill-rule="nonzero"/>
            <use xlink:href="#gDEEB100C61B237A40D2BAF1BA8E56992" x="119.80449999999999" y="0" fill="#000000" fill-rule="nonzero"/>
        </g>
        <g class="typst-text" transform="matrix(1 0 0 -1 70.5 30.156)">
            <use xlink:href="#gC2FA9689F1A8A88644E6770FA558780E" x="0" y="0" fill="#787878" fill-rule="nonzero"/>
            <use xlink:href="#gA2E6FDCC04B48F69534D177C70D2725E" x="4.448" y="0" fill="#787878" fill-rule="nonzero"/>
            <use xlink:href="#g18944438FFE1E4B4DDABF154A6A49177" x="6.672000000000001" y="0" fill="#787878" fill-rule="nonzero"/>
            <use xlink:href="#g8577653153C95CD1440DDAAAA00AD810" x="13.336" y="0" fill="#787878" fill-rule="nonzero"/>
            <use xlink:href="#g11AFE4FF67A66904825062A4ABF70586" x="17.336" y="0" fill="#787878" fill-rule="nonzero"/>
            <use xlink:href="#g6275D0CA679A7CC69AC9C7F8AD7018D" x="24.448" y="0" fill="#787878" fill-rule="nonzero"/>
            <use xlink:href="#g8577653153C95CD1440DDAAAA00AD810" x="30.448" y="0" fill="#787878" fill-rule="nonzero"/>
            <use xlink:href="#gA7CF7CE29AACBA04C242774DEB5A64E8" x="34.448" y="0" fill="#787878" fill-rule="nonzero"/>
            <use xlink:href="#g18944438FFE1E4B4DDABF154A6A49177" x="36.672" y="0" fill="#787878" fill-rule="nonzero"/>
            <use xlink:href="#g55482B66D6D485EEE0201577892864A7" x="46" y="0" fill="#787878" fill-rule="nonzero"/>
            <use xlink:href="#gC2FA9689F1A8A88644E6770FA558780E" x="54.888000000000005" y="0" fill="#787878" fill-rule="nonzero"/>
            <use xlink:href="#gE69756FDFBC07A8F991B44DBD61D9CFB" x="59.336000000000006" y="0" fill="#787878" fill-rule="nonzero"/>
            <use xlink:href="#g12D20A93472E248340E9B0FB6C3BEAE2" x="65.44800000000001" y="0" fill="#787878" fill-rule="nonzero"/>
            <use xlink:href="#g55482B66D6D485EEE0201577892864A7" x="74.11200000000001" y="0" fill="#787878" fill-rule="nonzero"/>
            <use xlink:href="#gD732957BDA558C5C30EE7F4112DA50B0" x="83.00000000000001" y="0" fill="#787878" fill-rule="nonzero"/>
            <use xlink:href="#g36D8BF04758EEE8B2BD3658E1687701F" x="87.00000000000001" y="0" fill="#787878" fill-rule="nonzero"/>
            <use xlink:href="#gD732957BDA558C5C30EE7F4112DA50B0" x="91.00000000000001" y="0" fill="#787878" fill-rule="nonzero"/>
            <use xlink:href="#gF1CA63E495D27F82724D32B734D301F9" x="95.00000000000001" y="0" fill="#787878" fill-rule="nonzero"/>
        </g>
        <path class="typst-shape" fill="none" stroke="#a0a0a0" stroke-width="0.4" stroke-linecap="butt" stroke-linejoin="miter" stroke-miterlimit="4" transform="matrix(1 0 0 1 14 39.331)" d="M 0 0h 212 "/>
        <g class="typst-group" transform="matrix(1 0 0 1 14 64.431)">
            <g>
                <g class="typst-text" transform="matrix(1 0 0 -1 0 9.123800000000001)">
                    <use xlink:href="#gD78935F0ABC3515040E46176F46B4FAF" x="0" y="0" fill="#000000" fill-rule="nonzero"/>
                    <use xlink:href="#g1EBF00F33F2477DCA484622F090718D3" x="10.0282" y="0" fill="#000000" fill-rule="nonzero"/>
                    <use xlink:href="#g8D15FB8190E5E4F9D2697A97E33A2998" x="17.6757" y="0" fill="#000000" fill-rule="nonzero"/>
                    <use xlink:href="#gAC381CA530D8EE1B115643ECCD9F52F5" x="23.7139" y="0" fill="#000000" fill-rule="nonzero"/>
                    <use xlink:href="#g674E322B37DAAAAEF86B1E80BFCBFC29" x="27.956599999999998" y="0" fill="#000000" fill-rule="nonzero"/>
                    <use xlink:href="#gAC381CA530D8EE1B115643ECCD9F52F5" x="33.9017" y="0" fill="#000000" fill-rule="nonzero"/>
                    <use xlink:href="#g82074AC40279AB05DA66B56CEBEF6EC9" x="38.1444" y="0" fill="#000000" fill-rule="nonzero"/>
                    <use xlink:href="#gE1DF6C4A1434D1BE8BFBFE3566ADB2B9" x="45.7919" y="0" fill="#000000" fill-rule="nonzero"/>
                    <use xlink:href="#gCD53B073011ECD9D71447BE1B105B6D9" x="57.8949" y="0" fill="#000000" fill-rule="nonzero"/>
                    <use xlink:href="#gE1DF6C4A1434D1BE8BFBFE3566ADB2B9" x="69.6255" y="0" fill="#000000" fill-rule="nonzero"/>
                    <use xlink:href="#g1A37733319359DB4B2B6D76DEE432C38" x="76.6346" y="0" fill="#000000" fill-rule="nonzero"/>
                    <use xlink:href="#g6C2CFE733193669592C671CDD30C70F" x="85.1333" y="0" fill="#000000" fill-rule="nonzero"/>
                    <use xlink:href="#gAC381CA530D8EE1B115643ECCD9F52F5" x="93.632" y="0" fill="#000000" fill-rule="nonzero"/>
                    <use xlink:href="#g674E322B37DAAAAEF86B1E80BFCBFC29" x="97.8747" y="0" fill="#000000" fill-rule="nonzero"/>
                    <use xlink:href="#gE1DF6C4A1434D1BE8BFBFE3566ADB2B9" x="103.8198" y="0" fill="#000000" fill-rule="nonzero"/>
                    <use xlink:href="#g6C2CFE733193669592C671CDD30C70F" x="110.8289" y="0" fill="#000000" fill-rule="nonzero"/>
                    <use xlink:href="#gE1DF6C4A1434D1BE8BFBFE3566ADB2B9" x="119.3276" y="0" fill="#000000" fill-rule="nonzero"/>
                    <use xlink:href="#g8D15FB8190E5E4F9D2697A97E33A2998" x="126.33670000000001" y="0" fill="#000000" fill-rule="nonzero"/>
                    <use xlink:href="#g8D15FB8190E5E4F9D2697A97E33A2998" x="132.3749" y="0" fill="#000000" fill-rule="nonzero"/>
                </g>
            </g>
        </g>
    </g>
    <defs id="glyph">
        <symbol id="g5D13AD39941B498CEDC06EBD0F70B8F2" overflow="visible">
            <path d="M 0 0m 7.7615 3.2015 c 0 2.0899997 -1.4250002 3.3154998 -3.3060002 3.3154998 h -4.0849996 v -0.44649982 h 1.026 v -5.624 h -1.026 v -0.44649997 h 4.0944996 c 1.8715 0 3.2965002 1.1685 3.2965002 3.2015 Z m -1.3965001 0.009500027 c 0 -1.0355 -0.11399984 -1.539 -0.41799974 -1.9665 c -0.45600033 -0.64599997 -1.2920003 -0.798 -1.8715 -0.798 h -1.3870001 v 5.624 h 1.3870001 c 0.62699986 0 1.4154997 -0.18050003 1.8809996 -0.8455 c 0.33250046 -0.48449993 0.4085002 -1.1304998 0.4085002 -2.014 Z "/>
        </symbol>
        <symbol id="g240D68F3B7AF4973A4E6B3B4024367C7" overflow="visible">
            <path d="M 0 0m 9.9845 0 v 0.44649997 h -1.026 v 5.624 h 1.026 v 0.44649982 h -2.0995002 c -0.20900011 0 -0.31349993 0 -0.41800022 -0.23749971 l -2.2799997 -5.0255003 l -2.28 5.0255003 c -0.10449982 0.23749971 -0.20899987 0.23749971 -0.41799998 0.23749971 h -2.1089997 v -0.44649982 h 1.0259999 v -5.3485 c 0 -0.20899999 -0.0094999075 -0.21850002 -0.27549994 -0.24700001 c -0.22799999 -0.02850002 -0.24699998 -0.02850002 -0.51299995 -0.02850002 h -0.23750001 v -0.44649997 c 0.361 0.028499998 0.9024999 0.028499998 1.273 0.028499998 c 0.39900005 0 0.893 0 1.2824999 -0.028499998 v 0.44649997 h -0.23749995 c -0.171 0 -0.33249998 0.009499997 -0.5035 0.02850002 c -0.27550006 0.02849999 -0.2850001 0.038000017 -0.2850001 0.24700001 v 5.225 h 0.009500027 l 2.5839999 -5.7095 c 0.08550024 -0.19 0.19950008 -0.2375 0.3039999 -0.2375 c 0.19000006 0 0.26600027 0.1425 0.30400038 0.22799999 l 2.6504998 5.8424997 h 0.009500027 v -5.624 h -1.026 v -0.44649997 c 0.342 0.028499998 1.2254996 0.028499998 1.6149998 0.028499998 c 0.38949966 0 1.2825003 0 1.6245003 -0.028499998 Z "/>
        </symbol>
        <symbol id="gC86E2D9E393312FD1F271EEB788D2978" overflow="visible">
            <path d="M 0 0m 4.9115 1.9094999 c 0 1.0925 -0.7505002 1.9760001 -2.1565 1.9760001 c -0.27550006 0 -0.7789999 -0.02850008 -1.2254999 -0.33249998 v 1.2539997 c 0.2659999 -0.047499657 0.37049997 -0.06649971 0.6934998 -0.06649971 c 1.3870001 0 2.261 1.0734997 2.261 1.3109999 c 0 0.06650019 -0.019000053 0.171 -0.1329999 0.171 c -0.02850008 0 -0.038000107 0 -0.14249992 -0.038000107 c -0.5415001 -0.20900011 -1.0450001 -0.2659998 -1.4535 -0.2659998 c -0.7219999 0 -1.2254999 0.18050003 -1.4725 0.2659998 c -0.0855 0.02850008 -0.09499991 0.038000107 -0.12349999 0.038000107 c -0.1329999 0 -0.1329999 -0.10449982 -0.1329999 -0.25650024 v -2.7739997 c 0 -0.171 0 -0.2945001 0.20899999 -0.2945001 c 0.12349999 0 0.14249992 0.038000107 0.20899999 0.11400008 c 0.37049997 0.43700004 0.88349986 0.53200006 1.273 0.53200006 c 0.8455 0 0.8455 -0.83599997 0.8455 -1.596 c 0 -0.69350004 0 -1.6435 -1.1400001 -1.6435 c -0.22799993 0 -0.82649994 0.047499985 -1.2255 0.589 c 0.342 0.018999994 0.61750007 0.24700004 0.61750007 0.63650006 c 0 0.5035 -0.40850008 0.6459999 -0.6365 0.6459999 c -0.14250004 0 -0.6365 -0.0855 -0.6365 -0.66499996 c 0 -0.8075 0.74099994 -1.615 1.919 -1.615 c 1.52 0 2.451 0.85499996 2.451 2.014 Z "/>
        </symbol>
        <symbol id="gDABEB0193C4672B0B04E48272B000AC1" overflow="visible">
            <path d="M 0 0m 4.9969997 1.9475 c 0 1.3299999 -0.95949984 2.0235 -2.1089997 2.0235 c -0.20900011 0 -0.7410002 0 -1.1400001 -0.7220001 v 0.18050003 c 0 1.083 0.19950008 1.4915001 0.26600003 1.6340001 c 0.22799993 0.44649982 0.74099994 0.78849983 1.3204999 0.78849983 c 0.171 0 0.49399996 -0.02850008 0.7125001 -0.24699974 c -0.342 -0.047500134 -0.513 -0.30400038 -0.513 -0.5890002 c 0 -0.32299995 0.2184999 -0.58899975 0.58899975 -0.58899975 c 0.3705001 0 0.59850025 0.24699974 0.59850025 0.6079998 c 0 0.58899975 -0.39900017 1.1875 -1.4060001 1.1875 c -1.2919998 0 -2.8595 -0.8169999 -2.8595 -3.211 c 0 -0.75049996 0.0855 -1.5105 0.47500002 -2.166 c 0.44649994 -0.722 1.1685 -0.95 1.8334999 -0.95 c 1.3205001 0 2.2324998 0.779 2.2324998 2.052 Z m -1.2919998 0.018999934 c 0 -0.95949996 0 -1.6624999 -0.9595001 -1.6624999 c -0.49399996 0 -0.75049996 0.3705 -0.82649994 0.52250004 c -0.15199995 0.30399996 -0.15199995 0.9974999 -0.15199995 1.1685 c 0 1.1875 0.513 1.6340001 1.0355 1.6340001 c 0.9024999 0 0.9024999 -0.7125001 0.9024999 -1.6625 Z "/>
        </symbol>
        <symbol id="gE168FF92C92CCC07B47724EF62CFACCE" overflow="visible">
            <path d="M 0 0m 4.693 0 v 0.44649997 h -1.3299999 v 5.472 c 0 0.20899963 0 0.3039999 -0.24699998 0.3039999 c -0.104500055 0 -0.12350011 0 -0.20900011 -0.06650019 c -0.7314999 -0.5414996 -1.7099999 -0.5414996 -1.9094999 -0.5414996 h -0.19 v -0.4465003 h 0.19 c 0.15200007 0 0.6745 0.009500027 1.2349999 0.19000006 v -4.9115 h -1.3204999 v -0.44649997 c 0.41799998 0.028499998 1.425 0.028499998 1.8905001 0.028499998 c 0.46549988 0 1.4725001 0 1.8904998 -0.028499998 Z "/>
        </symbol>
        <symbol id="g8EFD6AAE6D06C2AD11D2FDC436426696" overflow="visible">
            <path d="M 0 0m 10.9155 2.2419999 v 0.7220001 h -10.9155 v -0.7220001 Z "/>
        </symbol>
        <symbol id="g43843BA5DBDED95BF7788E42306998A6" overflow="visible">
            <path d="M 0 0m 6.1085 2.603 h -0.4465003 c -0.07599974 -0.65549994 -0.23749971 -2.1564999 -1.9379997 -2.1564999 h -0.9785001 v 5.624 h 1.2825 v 0.44649982 c -0.41799998 -0.02850008 -1.4535 -0.02850008 -1.9189999 -0.02850008 c -0.41799998 0 -1.3775 0 -1.7385 0.02850008 v -0.44649982 h 1.026 v -5.624 h -1.026 v -0.44649997 h 5.4434996 Z "/>
        </symbol>
        <symbol id="g7EEFA4EF4A8E1B51F7FF3FDADB522CB5" overflow="visible">
            <path d="M 0 0m 2.717 0 v 0.44649997 h -0.589 v 3.8285 l -1.653 -0.07600021 v -0.44650006 c 0.5604999 0 0.627 0 0.627 -0.37049985 v -2.9355 h -0.65550005 v -0.44649997 l 1.159 0.028499998 Z m -0.4560001 5.7665 c 0 0.40849972 -0.33249998 0.7409997 -0.74099994 0.7409997 c -0.40850008 0 -0.741 -0.33249998 -0.741 -0.7409997 c 0 -0.4085002 0.33249992 -0.7410002 0.741 -0.7410002 c 0.40849996 0 0.74099994 0.33249998 0.74099994 0.7410002 Z "/>
        </symbol>
        <symbol id="gFBCC6C9BAD7B5633F4FD59D2E6C896D4" overflow="visible">
            <path d="M 0 0m 5.8424997 0 v 0.44649997 h -0.65549994 v 2.4604998 c 0 0.99749994 -0.513 1.3680003 -1.4629998 1.3680003 c -0.9120002 0 -1.4155002 -0.54150033 -1.6625001 -1.0260003 v 1.0260003 l -1.6339998 -0.07600021 v -0.44650006 c 0.589 0 0.65549994 0 0.65549994 -0.37049985 v -2.9355 h -0.65549994 v -0.44649997 l 1.1969999 0.028499998 l 1.1969999 -0.028499998 v 0.44649997 h -0.65549994 v 1.9855 c 0 1.0355 0.8169999 1.5009999 1.4154999 1.5009999 c 0.32299995 0 0.5225003 -0.19950008 0.5225003 -0.92149997 v -2.5649998 h -0.6555002 v -0.44649997 l 1.1969998 0.028499998 Z "/>
        </symbol>
        <symbol id="g373387FC08D0FADB0EB421231BF48F19" overflow="visible">
            <path d="M 0 0m 4.693 1.1114999 c 0 0.171 -0.18050003 0.171 -0.22800016 0.171 c -0.16149998 0 -0.18050003 -0.047499895 -0.23749971 -0.19949996 c -0.19950008 -0.45599997 -0.7410002 -0.76 -1.3585 -0.76 c -1.3395 0 -1.349 1.2635 -1.349 1.7479999 h 2.869 c 0.20900011 0 0.3039999 0 0.3039999 0.2565 c 0 0.2945001 -0.05700016 0.9879999 -0.53200006 1.463 c -0.3514998 0.34199977 -0.8549998 0.5129998 -1.5105 0.5129998 c -1.5199999 0 -2.3465 -0.9784999 -2.3465 -2.1659997 c 0 -1.273 0.9499999 -2.1945 2.4795 -2.1945 c 1.5009997 0 1.9094999 1.007 1.9094999 1.1685 Z m -0.9024999 1.2730001 h -2.2705 c 0.018999934 0.37049985 0.02849996 0.7694998 0.22799993 1.083 c 0.24699998 0.37999988 0.6270001 0.49399996 0.9024999 0.49399996 c 1.1115 0 1.1305001 -1.2444999 1.1400001 -1.5769999 Z "/>
        </symbol>
        <symbol id="gDEEB100C61B237A40D2BAF1BA8E56992" overflow="visible">
            <path d="M 0 0m 5.2535 0.22799999 c 0 0.21849999 -0.12350035 0.21849999 -0.24700022 0.21849999 c -0.5794997 0.009499997 -0.5794997 0.13299999 -0.5794997 0.3515 v 2.0425 c 0 0.8455 -0.6745002 1.4629998 -2.0900002 1.4629998 c -0.5415 0 -1.7004999 -0.03799963 -1.7004999 -0.87399983 c 0 -0.41799998 0.33249998 -0.5985 0.589 -0.5985 c 0.2945 0 0.5984999 0.19950008 0.5984999 0.5985 c 0 0.2850001 -0.18049991 0.44650006 -0.20899999 0.46550012 c 0.26600003 0.05699992 0.57000005 0.06649995 0.68400013 0.06649995 c 0.71249986 0 1.0449998 -0.39899993 1.0449998 -1.121 v -0.32299995 c -0.6745 -0.02850008 -3.0874999 -0.11400008 -3.0874999 -1.4914999 c 0 -0.91200006 1.178 -1.0830001 1.8334999 -1.0830001 c 0.76 0 1.2065 0.38949996 1.4154999 0.78849995 c 0 -0.2945 0 -0.73149997 0.9879999 -0.73149997 h 0.45599985 c 0.19000006 0 0.30400038 0 0.30400038 0.22799999 Z m -1.9095001 1.0925 c 0 -0.91200006 -0.87399983 -1.0355 -1.1115 -1.0355 c -0.48449993 0 -0.8644999 0.3325 -0.8644999 0.75049996 c 0 1.0259999 1.501 1.159 1.976 1.1874999 Z "/>
        </symbol>
        <symbol id="gEA86C0299A26A2397F38B16262AB92AF" overflow="visible">
            <path d="M 0 0m 4.199 3.4959998 c 0 0.5035 -0.513 0.7790003 -1.007 0.7790003 c -0.66499996 0 -1.0450001 -0.47500014 -1.2635 -1.0735002 v 1.0735002 l -1.5769999 -0.07600021 v -0.44650006 c 0.589 0 0.6555 0 0.6555 -0.37049985 v -2.9355 h -0.6555 v -0.44649997 l 1.197 0.028499998 c 0.36099994 0 0.969 0 1.311 -0.028499998 v 0.44649997 h -0.82649994 v 1.6625 c 0 0.66499996 0.23749995 1.8239999 1.1875 1.8239999 c 0 0 -0.18050003 -0.16149998 -0.18050003 -0.43700004 c 0 -0.3894999 0.3039999 -0.57949996 0.57949996 -0.57949996 c 0.27550006 0 0.57949996 0.19950008 0.57949996 0.57949996 Z "/>
        </symbol>
        <symbol id="gA1447EA321D480FB1041114404ECE694" overflow="visible">
            <path d="M 0 0m 7.8564997 0 v 0.44649997 h -0.9214997 l -2.4320002 5.9375 c -0.10449982 0.24699974 -0.21850014 0.24699974 -0.3800001 0.24699974 c -0.2659998 0 -0.3039999 -0.07599974 -0.37049985 -0.24699974 l -2.356 -5.719 c -0.05700004 -0.14249998 -0.0855 -0.21849999 -0.8075 -0.21849999 h -0.1995 v -0.44649997 l 1.1114999 0.028499998 c 0.37049997 0 0.9024999 0 1.254 -0.028499998 v 0.44649997 c 0 0 -0.8455 0 -0.8455 0.12350002 l 0.038000107 0.11399996 l 0.4749999 1.1494999 h 2.5459998 l 0.5700002 -1.387 h -0.90250015 v -0.44649997 c 0.36100006 0.028499998 1.2635002 0.028499998 1.6719999 0.028499998 c 0.3800001 0 1.2160001 0 1.5485001 -0.028499998 Z m -3.0779996 2.28 h -2.1660001 l 1.083 2.641 Z "/>
        </symbol>
        <symbol id="g6072586D101E36C88C2FE61D08BDE7ED" overflow="visible">
            <path d="M 0 0m 2.7835 0 v 0.44649997 h -0.65549994 v 6.1465 l -1.6815001 -0.07600021 v -0.44649982 c 0.589 0 0.65550005 0 0.65550005 -0.3705001 v -5.2535 h -0.65550005 v -0.44649997 l 1.1685 0.028499998 Z "/>
        </symbol>
        <symbol id="gF36EA77ACFC0A0FDDB6D9F0877AA4A05" overflow="visible">
            <path d="M 0 0m 5.3009996 3.7714999 c 0 0.2184999 -0.16149998 0.5509999 -0.5984998 0.5509999 c -0.14249992 0 -0.5890002 -0.02850008 -1.007 -0.36099982 c -0.171 0.11400008 -0.56999993 0.31350017 -1.273 0.31350017 c -1.3679999 0 -1.8904998 -0.7410002 -1.8904998 -1.4060001 c 0 -0.38950014 0.19 -0.77900004 0.49400002 -0.99750006 c -0.26600003 -0.33249998 -0.32300007 -0.6459999 -0.32300007 -0.8454999 c 0 -0.14250004 0.038000047 -0.60800004 0.41799998 -0.91200006 c -0.12349999 -0.028499998 -0.8169999 -0.22799999 -0.8169999 -0.82649994 c 0 -0.48449993 0.52250004 -1.1969999 2.4225 -1.1969999 c 1.6815002 0 2.4225 0.5604999 2.4225 1.2254999 c 0 0.28499997 -0.07599974 0.8835 -0.7124996 1.2064999 c -0.5320003 0.26599997 -1.1020002 0.26599997 -2.0140002 0.26599997 c -0.24699998 0 -0.6839999 0 -0.7314999 0.009500027 c -0.41799998 0.06650001 -0.52250004 0.4275 -0.52250004 0.5985 c 0 0.09499991 0.037999988 0.23749995 0.09500003 0.31349993 c 0.43699992 -0.22799993 0.92149997 -0.24699998 1.1589999 -0.24699998 c 1.368 0 1.8904998 0.74100006 1.8904998 1.406 c 0 0.44649982 -0.23749971 0.76 -0.37999988 0.91199994 c 0.2850001 0.15199995 0.48450017 0.171 0.589 0.18050003 c -0.019000053 -0.047500134 -0.038000107 -0.13300014 -0.038000107 -0.19000006 c 0 -0.23749995 0.16149998 -0.40849996 0.4085002 -0.40849996 c 0.24699974 0 0.40849972 0.18050003 0.40849972 0.40849996 Z m -2.0424998 -0.9024999 c 0 -0.4275 0 -1.064 -0.83599997 -1.064 c -0.83599997 0 -0.83599997 0.6365 -0.83599997 1.064 c 0 0.4275 0 1.0639999 0.83599997 1.0639999 c 0.83599997 0 0.83599997 -0.6364999 0.83599997 -1.0639999 Z m 1.0734999 -3.5815 c 0 -0.342 -0.37049985 -0.855 -1.6055 -0.855 c -1.1399999 0 -1.6054999 0.43700004 -1.6054999 0.874 c 0 0.57 0.5985 0.57 0.7315 0.57 h 1.1115 c 0.29449987 0 1.3679998 0 1.3679998 -0.589 Z "/>
        </symbol>
        <symbol id="g1E1D17C3290AA982D6AE7C6102160DD2" overflow="visible">
            <path d="M 0 0m 5.7 2.1185 c 0 1.2635 -0.8930001 2.1565 -2.2705 2.1565 c -0.69350004 0 -1.1685 -0.2755003 -1.3964999 -0.46550012 v 2.7835 l -1.6815 -0.07600021 v -0.44649982 c 0.589 0 0.6555 0 0.6555 -0.3705001 v -5.7 h 0.44649994 c 0.15200007 0.1805 0.31350005 0.35149997 0.4655 0.532 c 0.075999975 -0.076000035 0.5415001 -0.589 1.3870001 -0.589 c 1.4154999 0 2.3939998 0.85499996 2.3939998 2.1755 Z m -1.2160001 0 c 0 -0.44650006 0 -0.969 -0.24699974 -1.3395 c -0.27550006 -0.3895 -0.7125001 -0.494 -1.0165 -0.494 c -0.66499996 0 -1.0355 0.513 -1.1305001 0.65549994 v 2.3844998 c 0.2565 0.33249998 0.7125001 0.60800004 1.2349999 0.60800004 c 1.1589999 0 1.1589999 -1.1494999 1.1589999 -1.8144999 Z "/>
        </symbol>
        <symbol id="gC2FA9689F1A8A88644E6770FA558780E" overflow="visible">
            <path d="M 0 0m 3.992 1.488 c 0 0.8000001 -0.5279999 1.4560002 -1.2 1.616 l -1.0239999 0.24800014 c -0.49600005 0.119999886 -0.8080001 0.55200005 -0.8080001 1.0159998 c 0 0.5600004 0.43200004 1.0480003 1.056 1.0480003 c 1.3360002 0 1.5120001 -1.3120003 1.5600002 -1.6720002 c 0.007999897 -0.048000097 0.007999897 -0.095999956 0.095999956 -0.095999956 c 0.10400009 0 0.10400009 0.03999996 0.10400009 0.19199991 v 1.6080003 c 0 0.13599968 0 0.19199991 -0.08800006 0.19199991 c -0.055999994 0 -0.06400013 -0.007999897 -0.120000124 -0.10400009 l -0.27999997 -0.45599985 c -0.24000001 0.23199987 -0.5680001 0.55999994 -1.28 0.55999994 c -0.88800013 0 -1.5600002 -0.704 -1.5600002 -1.552 c 0 -0.66400003 0.42400002 -1.2480001 1.0480001 -1.4640002 c 0.08800006 -0.032000065 0.49600005 -0.12800002 1.056 -0.26399994 c 0.21600008 -0.055999994 0.4560001 -0.11199999 0.68000007 -0.408 c 0.16799998 -0.20800006 0.24800014 -0.47200012 0.24800014 -0.73600006 c 0 -0.5680001 -0.4000001 -1.144 -1.072 -1.144 c -0.23200011 0 -0.84000015 0.04 -1.2640002 0.432 c -0.46400005 0.43200004 -0.48800004 0.94400007 -0.49600005 1.2320001 c -0.007999957 0.08000004 -0.07199997 0.08000004 -0.095999956 0.08000004 c -0.10400003 0 -0.10400003 -0.055999994 -0.10400003 -0.20000005 v -1.6 c 0 -0.136 0 -0.19200002 0.088 -0.19200002 c 0.055999994 0 0.06400001 0.016000003 0.120000005 0.10400001 c 0 0 0.023999989 0.032 0.28800005 0.456 c 0.24799997 -0.272 0.76000005 -0.56 1.4720001 -0.56 c 0.9360001 0 1.576 0.78400004 1.576 1.664 Z "/>
        </symbol>
        <symbol id="gA2E6FDCC04B48F69534D177C70D2725E" overflow="visible">
            <path d="M 0 0m 1.9760001 0 v 0.24800001 c -0.528 0 -0.56000006 0.040000007 -0.56000006 0.352 v 2.9360003 l -1.12 -0.08800006 v -0.24800014 c 0.52000004 0 0.59200007 -0.04799986 0.59200007 -0.43999982 v -2.1520002 c 0 -0.36 -0.08800006 -0.36 -0.6240001 -0.36 v -0.24800001 l 0.88000005 0.024 c 0.27999997 0 0.56000006 -0.015999999 0.832 -0.024 Z m -0.44000006 4.8320003 c 0 0.21600008 -0.1839999 0.4239998 -0.4239999 0.4239998 c -0.27200007 0 -0.4320001 -0.22399998 -0.4320001 -0.4239998 c 0 -0.21600008 0.18400002 -0.42400026 0.42400008 -0.42400026 c 0.27199996 0 0.43199992 0.22400045 0.43199992 0.42400026 Z "/>
        </symbol>
        <symbol id="g18944438FFE1E4B4DDABF154A6A49177" overflow="visible">
            <path d="M 0 0m 6.504 0 v 0.24800001 c -0.4159999 0 -0.6159997 0 -0.6240001 0.24000002 v 1.528 c 0 0.6880002 0 0.9360001 -0.24799967 1.2240002 c -0.11199999 0.13599992 -0.3760004 0.296 -0.84000015 0.296 c -0.67199993 0 -1.0240002 -0.48000002 -1.1600001 -0.78400016 c -0.11199999 0.6960001 -0.704 0.78400016 -1.0640001 0.78400016 c -0.584 0 -0.96000004 -0.3440001 -1.184 -0.84000015 v 0.84000015 l -1.128 -0.08800006 v -0.24800014 c 0.56000006 0 0.6240001 -0.055999994 0.6240001 -0.44799995 v -2.144 c 0 -0.36 -0.088 -0.36 -0.6240001 -0.36 v -0.24800001 l 0.90400004 0.024 l 0.8959999 -0.024 v 0.24800001 c -0.5359999 0 -0.62399995 0 -0.62399995 0.36 v 1.4720001 c 0 0.832 0.56799996 1.28 1.08 1.28 c 0.50399995 0 0.592 -0.43199992 0.592 -0.888 v -1.8640001 c 0 -0.36 -0.08800006 -0.36 -0.6240001 -0.36 v -0.24800001 l 0.90400004 0.024 l 0.89600015 -0.024 v 0.24800001 c -0.536 0 -0.6240001 0 -0.6240001 0.36 v 1.4720001 c 0 0.832 0.56799984 1.28 1.0799999 1.28 c 0.5040002 0 0.592 -0.43199992 0.592 -0.888 v -1.8640001 c 0 -0.36 -0.08799982 -0.36 -0.6240001 -0.36 v -0.24800001 l 0.9040003 0.024 Z "/>
        </symbol>
        <symbol id="g8577653153C95CD1440DDAAAA00AD810" overflow="visible">
            <path d="M 0 0m 3.7680001 1.7120001 c 0 1.0239999 -0.79999995 1.872 -1.7680001 1.872 c -1 0 -1.776 -0.872 -1.776 -1.872 c 0 -1.0320001 0.832 -1.8000002 1.7680001 -1.8000002 c 0.96799994 0 1.776 0.78400004 1.776 1.8000002 Z m -0.66400003 0.06400001 c 0 -0.2880001 0 -0.72000015 -0.17599988 -1.072 c -0.17600012 -0.36000004 -0.5280001 -0.59200007 -0.9280002 -0.59200007 c -0.34399986 0 -0.696 0.168 -0.91199994 0.536 c -0.19999999 0.352 -0.19999999 0.84000003 -0.19999999 1.1280001 c 0 0.31199992 0 0.7440001 0.19199997 1.0960001 c 0.21599996 0.36800003 0.592 0.536 0.91200006 0.536 c 0.352 0 0.6960001 -0.17600012 0.90400004 -0.52 c 0.20799994 -0.3440001 0.20799994 -0.8080001 0.20799994 -1.1120001 Z "/>
        </symbol>
        <symbol id="g11AFE4FF67A66904825062A4ABF70586" overflow="visible">
            <path d="M 0 0m 4.28 0 v 0.24800001 c -0.41600013 0 -0.61599994 0 -0.6240001 0.24000002 v 1.528 c 0 0.6880002 0 0.9360001 -0.2479999 1.2240002 c -0.11199999 0.13599992 -0.37600017 0.296 -0.84000015 0.296 c -0.584 0 -0.96000004 -0.3440001 -1.184 -0.84000015 v 0.84000015 l -1.128 -0.08800006 v -0.24800014 c 0.56000006 0 0.6240001 -0.055999994 0.6240001 -0.44799995 v -2.144 c 0 -0.36 -0.088 -0.36 -0.6240001 -0.36 v -0.24800001 l 0.90400004 0.024 l 0.8959999 -0.024 v 0.24800001 c -0.5359999 0 -0.62399995 0 -0.62399995 0.36 v 1.4720001 c 0 0.832 0.56799996 1.28 1.08 1.28 c 0.50399995 0 0.592 -0.43199992 0.592 -0.888 v -1.8640001 c 0 -0.36 -0.08800006 -0.36 -0.6240001 -0.36 v -0.24800001 l 0.90400004 0.024 Z "/>
        </symbol>
        <symbol id="g6275D0CA679A7CC69AC9C7F8AD7018D" overflow="visible">
            <path d="M 0 0m 5.728 0 v 0.24800001 h -0.19199991 c -0.6160002 0 -0.63199997 0.088000014 -0.63199997 0.376 v 4.216 c 0 0.2880001 0.015999794 0.37599993 0.63199997 0.37599993 h 0.19199991 v 0.24800014 c -0.27999973 -0.024000168 -0.87199974 -0.024000168 -1.1760001 -0.024000168 c -0.3039999 0 -0.9039998 0 -1.1839998 0.024000168 v -0.24800014 h 0.19199991 c 0.61599994 0 0.6320002 -0.08799982 0.6320002 -0.37599993 v -1.872 h -2.3920002 v 1.872 c 0 0.2880001 0.016000032 0.37599993 0.6320001 0.37599993 h 0.19199991 v 0.24800014 c -0.27999997 -0.024000168 -0.872 -0.024000168 -1.176 -0.024000168 c -0.30400002 0 -0.90400004 0 -1.184 0.024000168 v -0.24800014 h 0.19200003 c 0.616 0 0.632 -0.08799982 0.632 -0.37599993 v -4.216 c 0 -0.288 -0.016000032 -0.376 -0.632 -0.376 h -0.19200003 v -0.24800001 c 0.28000003 0.024 0.87200004 0.024 1.1760001 0.024 c 0.30400002 0 0.90400004 0 1.184 -0.024 v 0.24800001 h -0.19199991 c -0.61600006 0 -0.6320001 0.088000014 -0.6320001 0.376 v 2.096 h 2.3920002 v -2.096 c 0 -0.288 -0.01600027 -0.376 -0.6320002 -0.376 h -0.19199991 v -0.24800001 c 0.27999997 0.024 0.872 0.024 1.1759999 0.024 c 0.3039999 0 0.9040003 0 1.184 -0.024 Z "/>
        </symbol>
        <symbol id="gA7CF7CE29AACBA04C242774DEB5A64E8" overflow="visible">
            <path d="M 0 0m 2.0400002 0 v 0.24800001 c -0.53600013 0 -0.6240002 0 -0.6240002 0.36 v 4.9440002 l -1.152 -0.08799982 v -0.24800014 c 0.56000006 0 0.6240001 -0.055999756 0.6240001 -0.44799995 v -4.16 c 0 -0.36 -0.08800006 -0.36 -0.6240001 -0.36 v -0.24800001 l 0.8880001 0.024 Z "/>
        </symbol>
        <symbol id="g55482B66D6D485EEE0201577892864A7" overflow="visible">
            <path d="M 0 0m 3.5360003 2.736 c 0 0.23200011 -0.19200015 0.42400002 -0.42400002 0.42400002 c -0.23200011 0 -0.42400002 -0.19199991 -0.42400002 -0.42400002 c 0 -0.23199987 0.19199991 -0.42400002 0.42400002 -0.42400002 c 0.23199987 0 0.42400002 0.19200015 0.42400002 0.42400002 Z "/>
        </symbol>
        <symbol id="gE69756FDFBC07A8F991B44DBD61D9CFB" overflow="visible">
            <path d="M 0 0m 5.656 2.6880002 c 0 1.52 -1.0799999 2.776 -2.448 2.776 h -2.9280002 v -0.24800014 h 0.19200003 c 0.61600006 0 0.6320001 -0.08799982 0.6320001 -0.37599993 v -4.216 c 0 -0.288 -0.016000032 -0.376 -0.6320001 -0.376 h -0.19200003 v -0.24800001 h 2.9280002 c 1.3439999 0 2.448 1.184 2.448 2.6880002 Z m -0.7999997 0 c 0 -0.88800013 -0.15200043 -1.3680001 -0.44000006 -1.7600002 c -0.16000032 -0.21600002 -0.6160002 -0.68 -1.4240003 -0.68 h -0.8080001 c -0.37599993 0 -0.39199996 0.05600001 -0.39199996 0.32 v 4.3280005 c 0 0.26399994 0.016000032 0.3199997 0.39199996 0.3199997 h 0.8000002 c 0.49600005 0 1.0479999 -0.17599964 1.4559999 -0.74399996 c 0.34400034 -0.47200012 0.41600037 -1.1599998 0.41600037 -1.7839999 Z "/>
        </symbol>
        <symbol id="g12D20A93472E248340E9B0FB6C3BEAE2" overflow="visible">
            <path d="M 0 0m 5.728 5.216 v 0.24800014 l -0.94399977 -0.024000168 l -0.95200014 0.024000168 v -0.24800014 c 0.8239999 0 0.8239999 -0.37599993 0.8239999 -0.592 v -2.776 c 0 -1.136 -0.776 -1.776 -1.536 -1.776 c -0.37599993 0 -1.32 0.20000002 -1.32 1.72 v 3.048 c 0 0.2880001 0.016000032 0.37599993 0.6320001 0.37599993 h 0.19199991 v 0.24800014 c -0.27999997 -0.024000168 -0.872 -0.024000168 -1.176 -0.024000168 c -0.30400002 0 -0.90400004 0 -1.184 0.024000168 v -0.24800014 h 0.19200003 c 0.616 0 0.632 -0.08799982 0.632 -0.37599993 v -3.016 c 0 -1.128 0.928 -2.0000002 2.016 -2.0000002 c 0.9200001 0 1.6400003 0.744 1.776 1.656 c 0.024000168 0.16000009 0.024000168 0.23200011 0.024000168 0.55200005 v 2.56 c 0 0.26400042 0 0.6240001 0.8239999 0.6240001 Z "/>
        </symbol>
        <symbol id="gD732957BDA558C5C30EE7F4112DA50B0" overflow="visible">
            <path d="M 0 0m 3.5920002 1.3920001 h -0.20000005 c -0.03999996 -0.24000001 -0.095999956 -0.59200007 -0.17600012 -0.7120001 c -0.055999994 -0.06399995 -0.5839999 -0.06399995 -0.76 -0.06399995 h -1.44 l 0.84800005 0.824 c 1.2480001 1.1040001 1.7280002 1.536 1.7280002 2.3360002 c 0 0.91199994 -0.72 1.5519998 -1.6960001 1.5519998 c -0.9040001 0 -1.4960002 -0.73600006 -1.4960002 -1.448 c 0 -0.44799995 0.4 -0.44799995 0.42400005 -0.44799995 c 0.13599998 0 0.41599995 0.095999956 0.41599995 0.42400002 c 0 0.20799994 -0.14399993 0.41600013 -0.42399997 0.41600013 c -0.06400001 0 -0.07999998 0 -0.10400003 -0.007999897 c 0.18400002 0.52 0.61600006 0.816 1.08 0.816 c 0.72800016 0 1.072 -0.64800024 1.072 -1.3040001 c 0 -0.6400001 -0.39999986 -1.2720001 -0.8399999 -1.7680001 l -1.5360001 -1.7120001 c -0.08800003 -0.088 -0.08800003 -0.104 -0.08800003 -0.296 h 2.9680002 Z "/>
        </symbol>
        <symbol id="g36D8BF04758EEE8B2BD3658E1687701F" overflow="visible">
            <path d="M 0 0m 3.68 2.5600002 c 0 0.63999987 -0.03999996 1.28 -0.31999993 1.872 c -0.36800003 0.7680001 -1.0239999 0.8959999 -1.3600001 0.8959999 c -0.4799999 0 -1.0639999 -0.2079997 -1.392 -0.95199966 c -0.256 -0.5520003 -0.29600003 -1.1760004 -0.29600003 -1.8160002 c 0 -0.60000014 0.032000005 -1.3200002 0.36000004 -1.9280002 c 0.34399998 -0.648 0.928 -0.808 1.32 -0.808 c 0.43199992 0 1.04 0.16800001 1.392 0.92800003 c 0.25600004 0.552 0.296 1.1760001 0.296 1.8080001 Z m -0.66400003 0.095999956 c 0 -0.60000014 0 -1.144 -0.08799982 -1.6560001 c -0.120000124 -0.76 -0.5760002 -1 -0.9360001 -1 c -0.31200004 0 -0.78400004 0.2 -0.9280001 0.96800005 c -0.08799994 0.48000002 -0.08799994 1.216 -0.08799994 1.6880001 c 0 0.5120001 0 1.04 0.06400001 1.4720001 c 0.15199995 0.95200014 0.752 1.0240002 0.952 1.0240002 c 0.26399994 0 0.79200006 -0.14400005 0.944 -0.93600035 c 0.07999992 -0.44799995 0.07999992 -1.056 0.07999992 -1.56 Z "/>
        </symbol>
        <symbol id="gF1CA63E495D27F82724D32B734D301F9" overflow="visible">
            <path d="M 0 0m 3.5920002 1.608 c 0 0.95200014 -0.65600014 1.7520001 -1.5200002 1.7520001 c -0.38399994 0 -0.7279999 -0.12800002 -1.016 -0.408 v 1.56 c 0.16000009 -0.04799986 0.42400002 -0.10400009 0.68000007 -0.10400009 c 0.98399997 0 1.5440001 0.72800016 1.5440001 0.83200026 c 0 0.04799986 -0.024000168 0.08799982 -0.08000016 0.08799982 c 0 0 -0.02399993 0 -0.06399989 -0.023999691 c -0.16000009 -0.07200003 -0.55200005 -0.23200035 -1.088 -0.23200035 c -0.32000005 0 -0.6880001 0.056000233 -1.0640001 0.22400045 c -0.06400001 0.023999691 -0.095999956 0.023999691 -0.095999956 0.023999691 c -0.08000004 0 -0.08000004 -0.06400013 -0.08000004 -0.19199991 v -2.368 c 0 -0.14400005 0 -0.20800018 0.11199999 -0.20800018 c 0.056000054 0 0.07200003 0.024000168 0.10400003 0.07200003 c 0.08800006 0.12800002 0.38400006 0.5600002 1.032 0.5600002 c 0.41600013 0 0.6160002 -0.36800003 0.68000007 -0.5120001 c 0.12800002 -0.296 0.14400005 -0.60800004 0.14400005 -1.0080001 c 0 -0.27999997 0 -0.76 -0.19199991 -1.096 c -0.19200015 -0.312 -0.48800015 -0.52000004 -0.85600007 -0.52000004 c -0.5840001 0 -1.0400001 0.42400002 -1.1760001 0.8960001 c 0.023999989 -0.008000016 0.048000038 -0.016000032 0.13600004 -0.016000032 c 0.26399994 0 0.39999998 0.19999999 0.39999998 0.39200002 c 0 0.19200003 -0.13600004 0.39200008 -0.39999998 0.39200008 c -0.11200005 0 -0.39200005 -0.055999994 -0.39200005 -0.42400002 c 0 -0.6880001 0.55200005 -1.4640001 1.4480001 -1.4640001 c 0.928 0 1.7440002 0.768 1.7440002 1.784 Z "/>
        </symbol>
        <symbol id="gD78935F0ABC3515040E46176F46B4FAF" overflow="visible">
            <path d="M 0 0m 9.5893 6.5302997 c 0 1.4630003 -1.3167 2.5935006 -3.5245004 2.5935006 h -5.5460997 v -0.62510014 h 1.4363999 v -7.8736 h -1.4363999 v -0.6251 c 0.50539994 0.039899997 1.8087999 0.039899997 2.3807 0.039899997 c 0.5718999 0 1.8752997 0 2.3806999 -0.039899997 v 0.6251 h -1.4363999 v 3.3915 h 2.3540998 c 1.8487005 0 3.3915005 0.95759964 3.3915005 2.5136995 Z m -2.0349002 0 c 0 -0.9442997 0 -1.9683995 -2.0083003 -1.9683995 h -1.7821996 v 3.9368 h 1.7955 c 1.9949999 0 1.9949999 -1.0108004 1.9949999 -1.9684005 Z "/>
        </symbol>
        <symbol id="g1EBF00F33F2477DCA484622F090718D3" overflow="visible">
            <path d="M 0 0m 7.2086 2.8994 c 0 1.7822001 -1.2236004 3.1255 -3.3915 3.1255 c -2.1812 0 -3.3915 -1.3565998 -3.3915 -3.1255 c 0 -1.6492 1.1703999 -2.9792 3.3915 -2.9792 c 2.2343998 0 3.3915 1.3433 3.3915 2.9792 Z m -1.7024002 0.14629984 c 0 -1.1570998 0 -2.5935 -1.6890998 -2.5935 c -1.6891 0 -1.6891 1.4363999 -1.6891 2.5935 c 0 0.5985 0 1.2767999 0.22609997 1.7289999 c 0.25269985 0.49210024 0.81130004 0.7714 1.463 0.7714 c 0.55859995 0 1.1171999 -0.21279955 1.4098 -0.6782999 c 0.27929974 -0.45219994 0.27929974 -1.1836998 0.27929974 -1.8220999 Z "/>
        </symbol>
        <symbol id="g8D15FB8190E5E4F9D2697A97E33A2998" overflow="visible">
            <path d="M 0 0m 5.5195 1.862 c 0 0.5718999 -0.2659998 1.0374 -0.7314997 1.4098 c -0.5187001 0.3857 -0.9443002 0.46549988 -1.9817002 0.63839984 c -0.4921 0.09309983 -1.3565999 0.23940015 -1.3565999 0.8644998 c 0 0.8246002 1.2369 0.8246002 1.4896001 0.8246002 c 0.99749994 0 1.5028996 -0.38570023 1.5693998 -1.1171999 c 0.013299942 -0.19950008 0.026599884 -0.26600027 0.3059001 -0.26600027 c 0.31920004 0 0.31920004 0.06650019 0.31920004 0.37240028 v 1.0639997 c 0 0.25270033 0 0.37240028 -0.23939991 0.37240028 c -0.053200245 0 -0.07980013 0 -0.59850025 -0.25269985 c -0.34579992 0.17289972 -0.81130004 0.25269985 -1.3432999 0.25269985 c -0.39900017 0 -2.4472 0 -2.4472 -1.7423 c 0 -0.53200006 0.26599997 -0.89109993 0.532 -1.1171999 c 0.53199995 -0.46550012 1.0374 -0.5453 2.0614998 -0.73150015 c 0.47880006 -0.07979989 1.4763002 -0.25269985 1.4763002 -1.0373999 c 0 -0.9975 -1.2236001 -0.9975 -1.5162001 -0.9975 c -1.4098 0 -1.7556001 0.9709 -1.9152 1.5428 c -0.06650007 0.18620002 -0.13300002 0.18620002 -0.31920004 0.18620002 c -0.31919998 0 -0.31919998 -0.07980013 -0.31919998 -0.3857001 v -1.4496999 c 0 -0.2527 0 -0.3724 0.23939997 -0.3724 c 0.09310001 0 0.119700015 0 0.39900005 0.1995 l 0.34579992 0.22609998 c 0.61179996 -0.4256 1.3034 -0.4256 1.5694001 -0.4256 c 0.41229987 0 2.4604998 0 2.4604998 1.9418 Z "/>
        </symbol>
        <symbol id="gAC381CA530D8EE1B115643ECCD9F52F5" overflow="visible">
            <path d="M 0 0m 3.8037999 0 v 0.6251 h -0.8246 v 5.3598995 l -2.3142 -0.106399536 v -0.62510014 c 0.78470004 0 0.8778 0 0.8778 -0.5187001 v -4.1096997 h -0.91769993 v -0.6251 l 1.6226 0.039899997 Z m -0.63839984 8.0731 c 0 0.5718994 -0.46550012 1.0373993 -1.0374 1.0373993 c -0.5719 0 -1.0374 -0.46549988 -1.0374 -1.0373993 c 0 -0.57190037 0.4655 -1.0374002 1.0374 -1.0374002 c 0.5718999 0 1.0374 0.46549988 1.0374 1.0374002 Z "/>
        </symbol>
        <symbol id="g674E322B37DAAAAEF86B1E80BFCBFC29" overflow="visible">
            <path d="M 0 0m 5.0806 1.6492 v 0.7049 h -0.62509966 v -0.6783 c 0 -0.9044 -0.42560005 -1.2235999 -0.7980001 -1.2235999 c -0.7714 0 -0.7714 0.8511999 -0.7714 1.1571 v 3.6707997 h 1.9417999 v 0.62510014 h -1.9417999 v 2.5402994 h -0.62510014 c -0.013299942 -1.3299994 -0.66499996 -2.6466994 -1.9817 -2.6865997 v -0.47879982 h 1.0906 v -3.6441998 c 0 -1.4231 1.1571 -1.7157 2.1014 -1.7157 c 1.0108001 0 1.6092999 0.7581 1.6092999 1.729 Z "/>
        </symbol>
        <symbol id="g82074AC40279AB05DA66B56CEBEF6EC9" overflow="visible">
            <path d="M 0 0m 7.7139997 5.2801 v 0.62510014 c -0.33249998 -0.026599884 -0.71819973 -0.039900303 -1.0506997 -0.039900303 l -1.2103 0.039900303 v -0.62510014 c 0.25269985 0 0.6383996 -0.039899826 0.6383996 -0.14629984 c 0 0 0 -0.02660036 -0.06649971 -0.15960026 l -1.5428 -3.3249998 l -1.6891 3.6309 h 0.71819997 v 0.62510014 l -1.6492 -0.039900303 l -1.5162001 0.039900303 v -0.62510014 h 0.85120004 l 2.3274999 -5.0007997 c 0.15960002 -0.3325 0.33249998 -0.3325 0.5054002 -0.3325 c 0.22609997 0 0.35909986 0.039899997 0.49209976 0.3192 l 2.2078 4.7348003 c 0.07980013 0.18619967 0.1329999 0.27929974 0.9842 0.27929974 Z "/>
        </symbol>
        <symbol id="gE1DF6C4A1434D1BE8BFBFE3566ADB2B9" overflow="visible">
            <path d="M 0 0m 6.5702 1.5561 c 0 0.23939991 -0.25269985 0.23939991 -0.31920004 0.23939991 c -0.22609997 0 -0.25269985 -0.06649995 -0.33249998 -0.27929997 c -0.2793002 -0.63839996 -1.0374002 -1.0639999 -1.9018998 -1.0639999 c -1.8753002 0 -1.8886001 1.7688999 -1.8886001 2.4472 h 4.0165997 c 0.29260015 0 0.42560005 0 0.42560005 0.35909986 c 0 0.4123001 -0.07980013 1.3831999 -0.7448001 2.0482 c -0.49209976 0.4788003 -1.197 0.7182002 -2.1146998 0.7182002 c -2.128 0 -3.2851 -1.3699002 -3.2851 -3.0324001 c 0 -1.7821999 1.3299999 -3.0722997 3.4713 -3.0722997 c 2.1014001 0 2.6733 1.4097999 2.6733 1.6359 Z m -1.2635002 1.7822 h -3.1786997 c 0.026599884 0.5186999 0.039899826 1.0772998 0.31920004 1.5161998 c 0.34579992 0.53200006 0.8778 0.69159985 1.2635 0.69159985 c 1.5560999 0 1.5826998 -1.7422998 1.5959997 -2.2077997 Z "/>
        </symbol>
        <symbol id="gCD53B073011ECD9D71447BE1B105B6D9" overflow="visible">
            <path d="M 0 0m 10.866099 4.4821 c 0 2.9259996 -1.9949999 4.6417003 -4.6283994 4.6417003 h -5.719 v -0.62510014 h 1.4363999 v -7.8736 h -1.4363999 v -0.6251 h 5.7323 c 2.6200995 0 4.6150994 1.6359 4.6150994 4.4821 Z m -1.9550991 0.013299942 c 0 -1.4497001 -0.15960026 -2.1546 -0.5852003 -2.7531 c -0.6384001 -0.90439993 -1.8088002 -1.1171999 -2.6201 -1.1171999 h -1.9417999 v 7.8736 h 1.9417999 c 0.8778 0 1.9817 -0.25269985 2.6334 -1.1837001 c 0.46549988 -0.6783004 0.57190037 -1.5827003 0.57190037 -2.8196 Z "/>
        </symbol>
        <symbol id="g1A37733319359DB4B2B6D76DEE432C38" overflow="visible">
            <path d="M 0 0m 7.9933 0 v 0.6251 h -0.9177003 v 5.4131 l -2.3407998 -0.07980013 l -0.013299942 -0.053199768 h -1.9551 v 1.3034 c 0 1.1171999 0.9044001 1.6225996 2.1280003 1.6225996 c 0.38569975 0 0.66499996 -0.06649971 0.9708996 -0.23939991 c -0.22609997 -0.07979965 -0.58519983 -0.30589962 -0.58519983 -0.8378997 c 0 -0.5187001 0.38570023 -0.86450005 0.86450005 -0.86450005 c 0.49209976 0 0.8778 0.33249998 0.8778 0.8778 c 0 0.6916003 -0.58519983 1.5427995 -2.0482001 1.5427995 c -1.6491997 0 -3.5643997 -0.51869965 -3.5643997 -2.0747995 v -1.3299999 h -0.99749994 v -0.62510014 h 0.99749994 v -4.6549997 h -0.91769993 v -0.6251 l 1.6359 0.039899997 l 1.6359 -0.039899997 v 0.6251 h -0.91770005 v 4.6549997 h 2.394 c 0.31920004 0 0.3989997 0 0.3989997 -0.46549988 v -4.1895 h -0.9176998 v -0.6251 l 1.6359 0.039899997 Z "/>
        </symbol>
        <symbol id="g6C2CFE733193669592C671CDD30C70F" overflow="visible">
            <path d="M 0 0m 8.1795 0 v 0.6251 h -0.9176998 v 3.4446998 c 0 1.3965001 -0.71819973 1.9151998 -2.0482001 1.9151998 c -1.2767997 0 -1.9816997 -0.75809956 -2.3274996 -1.4363999 v 1.4363999 l -2.2876 -0.106399536 v -0.62510014 c 0.8246 0 0.91769993 0 0.91769993 -0.5187001 v -4.1096997 h -0.91769993 v -0.6251 l 1.6757998 0.039899997 l 1.6758001 -0.039899997 v 0.6251 h -0.91770005 v 2.7796998 c 0 1.4496999 1.1438 2.1014 1.9817002 2.1014 c 0.45219994 0 0.7314997 -0.27929974 0.7314997 -1.2901001 v -3.5909996 h -0.9176998 v -0.6251 l 1.6757998 0.039899997 Z "/>
        </symbol>
    </defs>
</svg>
